SplineFontDB: 3.2
FontName: PixelOperator
FullName: Pixel Operator
FamilyName: Pixel Operator
Weight: Book
Copyright: Released by Jayvee Enaguas (HarvettFox96) <harvettfox96 [at] protonmail [dot] com>, licensed under a Creative Commons Zero (CC0) 1.0 <https://creativecommons.org/licenses/zero/1.0/>. (c) 2009-2018.
Version: 2018.10.04-1
ItalicAngle: 0
UnderlinePosition: -350
UnderlineWidth: 100
Ascent: 1300
Descent: 300
InvalidEm: 0
sfntRevision: 0x07e21999
LayerCount: 2
Layer: 0 1 "Back" 1
Layer: 1 1 "Fore" 0
XUID: [1021 515 -781207684 8108]
StyleMap: 0x0040
FSType: 0
OS2Version: 4
OS2_WeightWidthSlopeOnly: 0
OS2_UseTypoMetrics: 1
CreationTime: 1316415715
ModificationTime: 1732458065
PfmFamily: 17
TTFWeight: 400
TTFWidth: 5
LineGap: 72
VLineGap: 0
Panose: 2 0 5 3 0 0 0 0 0 0
OS2TypoAscent: 1300
OS2TypoAOffset: 0
OS2TypoDescent: -300
OS2TypoDOffset: 0
OS2TypoLinegap: 72
OS2WinAscent: 1300
OS2WinAOffset: 0
OS2WinDescent: 300
OS2WinDOffset: 0
HheadAscent: 1300
HheadAOffset: 0
HheadDescent: -300
HheadDOffset: 0
OS2SubXSize: 1040
OS2SubYSize: 1120
OS2SubXOff: 0
OS2SubYOff: 224
OS2SupXSize: 1040
OS2SupYSize: 1120
OS2SupXOff: 0
OS2SupYOff: 768
OS2StrikeYSize: 79
OS2StrikeYPos: 414
OS2CapHeight: 900
OS2XHeight: 700
OS2FamilyClass: 2048
OS2Vendor: 'HF96'
OS2CodePages: 00000001.00000000
OS2UnicodeRanges: 80000027.0000000a.00000000.00000000
DEI: 91125
ShortTable: maxp 16
  1
  0
  241
  68
  17
  40
  10
  2
  0
  1
  1
  0
  64
  0
  3
  2
EndShort
LangName: 1033 "" "" "Regular" "PixelOperator:FontForge:2018.10.04-1" "" "2018.10.04-1" "" "" "" "Jayvee Enaguas (HarvettFox96)" "" "" "mailto:harvettfox96 [at] protonmail [dot] com" "Creative Commons Zero (CC0) 1.0" "https://creativecommons.org/licenses/zero/1.0/"
GaspTable: 1 65535 2 0
Encoding: UnicodeBmp
UnicodeInterp: none
NameList: AGL For New Fonts
DisplaySize: -48
AntiAlias: 1
FitToEm: 0
WinInfo: 0 49 16
BeginChars: 65539 243

StartChar: .notdef
Encoding: 65536 -1 0
Width: 900
GlyphClass: 1
Flags: W
LayerCount: 2
Fore
SplineSet
600 800 m 1,0,-1
 300 800 l 1,1,-1
 300 100 l 1,2,-1
 600 100 l 1,3,-1
 600 800 l 1,0,-1
200 900 m 1,4,-1
 700 900 l 1,5,-1
 700 0 l 1,6,-1
 200 0 l 1,7,-1
 200 900 l 1,4,-1
EndSplineSet
Validated: 1
EndChar

StartChar: exclam
Encoding: 33 33 4
Width: 500
GlyphClass: 1
Flags: W
LayerCount: 2
Fore
SplineSet
200 900 m 1,0,-1
 300 900 l 1,1,-1
 300 200 l 1,2,-1
 200 200 l 1,3,-1
 200 900 l 1,0,-1
200 100 m 1,4,-1
 300 100 l 1,5,-1
 300 0 l 1,6,-1
 200 0 l 1,7,-1
 200 100 l 1,4,-1
EndSplineSet
Validated: 1
EndChar

StartChar: quotedbl
Encoding: 34 34 5
Width: 700
GlyphClass: 1
Flags: W
LayerCount: 2
Fore
SplineSet
200 900 m 1,0,-1
 300 900 l 1,1,-1
 300 600 l 1,2,-1
 200 600 l 1,3,-1
 200 900 l 1,0,-1
400 900 m 1,4,-1
 500 900 l 1,5,-1
 500 600 l 1,6,-1
 400 600 l 1,7,-1
 400 900 l 1,4,-1
EndSplineSet
Validated: 1
EndChar

StartChar: numbersign
Encoding: 35 35 6
Width: 800
GlyphClass: 1
Flags: W
LayerCount: 2
Fore
SplineSet
200 900 m 1,0,-1
 300 900 l 1,1,-1
 300 700 l 1,2,-1
 500 700 l 1,3,-1
 500 900 l 1,4,-1
 600 900 l 1,5,-1
 600 700 l 1,6,-1
 700 700 l 1,7,-1
 700 600 l 1,8,-1
 600 600 l 1,9,-1
 600 300 l 1,10,-1
 700 300 l 1,11,-1
 700 200 l 1,12,-1
 600 200 l 1,13,-1
 600 0 l 1,14,-1
 500 0 l 1,15,-1
 500 200 l 1,16,-1
 300 200 l 1,17,-1
 300 0 l 1,18,-1
 200 0 l 1,19,-1
 200 200 l 1,20,-1
 100 200 l 1,21,-1
 100 300 l 1,22,-1
 200 300 l 1,23,-1
 200 600 l 1,24,-1
 100 600 l 1,25,-1
 100 700 l 1,26,-1
 200 700 l 1,27,-1
 200 900 l 1,0,-1
500 600 m 1,28,-1
 300 600 l 1,29,-1
 300 300 l 1,30,-1
 500 300 l 1,31,-1
 500 600 l 1,28,-1
EndSplineSet
Validated: 1
EndChar

StartChar: dollar
Encoding: 36 36 7
Width: 700
GlyphClass: 1
Flags: W
LayerCount: 2
Fore
SplineSet
500 800 m 1,0,-1
 600 800 l 1,1,-1
 600 700 l 1,2,-1
 500 700 l 1,3,-1
 500 800 l 1,0,-1
100 200 m 1,4,-1
 200 200 l 1,5,-1
 200 100 l 1,6,-1
 100 100 l 1,7,-1
 100 200 l 1,4,-1
500 400 m 1,8,-1
 600 400 l 1,9,-1
 600 100 l 1,10,-1
 500 100 l 1,11,-1
 500 400 l 1,8,-1
100 800 m 1,12,-1
 200 800 l 1,13,-1
 200 500 l 1,14,-1
 100 500 l 1,15,-1
 100 800 l 1,12,-1
300 1100 m 1,16,-1
 400 1100 l 1,17,-1
 400 900 l 1,18,-1
 500 900 l 1,19,-1
 500 800 l 1,20,-1
 400 800 l 1,21,-1
 400 500 l 1,22,-1
 500 500 l 1,23,-1
 500 400 l 1,24,-1
 400 400 l 1,25,-1
 400 100 l 1,26,-1
 500 100 l 1,27,-1
 500 0 l 1,28,-1
 400 0 l 1,29,-1
 400 -200 l 1,30,-1
 300 -200 l 1,31,-1
 300 0 l 1,32,-1
 200 0 l 1,33,-1
 200 100 l 1,34,-1
 300 100 l 1,35,-1
 300 400 l 1,36,-1
 200 400 l 1,37,-1
 200 500 l 1,38,-1
 300 500 l 1,39,-1
 300 800 l 1,40,-1
 200 800 l 1,41,-1
 200 900 l 1,42,-1
 300 900 l 1,43,-1
 300 1100 l 1,16,-1
EndSplineSet
Validated: 5
EndChar

StartChar: percent
Encoding: 37 37 8
Width: 900
GlyphClass: 1
Flags: W
LayerCount: 2
Fore
SplineSet
700 300 m 1,0,-1
 800 300 l 1,1,-1
 800 100 l 1,2,-1
 700 100 l 1,3,-1
 700 300 l 1,0,-1
600 100 m 1,4,-1
 700 100 l 1,5,-1
 700 0 l 1,6,-1
 600 0 l 1,7,-1
 600 100 l 1,4,-1
500 300 m 1,8,-1
 600 300 l 1,9,-1
 600 100 l 1,10,-1
 500 100 l 1,11,-1
 500 300 l 1,8,-1
600 400 m 1,12,-1
 700 400 l 1,13,-1
 700 300 l 1,14,-1
 600 300 l 1,15,-1
 600 400 l 1,12,-1
200 300 m 1,16,-1
 300 300 l 1,17,-1
 300 200 l 1,18,-1
 200 200 l 1,19,-1
 200 300 l 1,16,-1
300 400 m 1,20,-1
 400 400 l 1,21,-1
 400 300 l 1,22,-1
 300 300 l 1,23,-1
 300 400 l 1,20,-1
400 500 m 1,24,-1
 500 500 l 1,25,-1
 500 400 l 1,26,-1
 400 400 l 1,27,-1
 400 500 l 1,24,-1
500 600 m 1,28,-1
 600 600 l 1,29,-1
 600 500 l 1,30,-1
 500 500 l 1,31,-1
 500 600 l 1,28,-1
600 700 m 1,32,-1
 700 700 l 1,33,-1
 700 600 l 1,34,-1
 600 600 l 1,35,-1
 600 700 l 1,32,-1
300 800 m 1,36,-1
 400 800 l 1,37,-1
 400 600 l 1,38,-1
 300 600 l 1,39,-1
 300 800 l 1,36,-1
200 600 m 1,40,-1
 300 600 l 1,41,-1
 300 500 l 1,42,-1
 200 500 l 1,43,-1
 200 600 l 1,40,-1
100 800 m 1,44,-1
 200 800 l 1,45,-1
 200 600 l 1,46,-1
 100 600 l 1,47,-1
 100 800 l 1,44,-1
200 900 m 1,48,-1
 300 900 l 1,49,-1
 300 800 l 1,50,-1
 200 800 l 1,51,-1
 200 900 l 1,48,-1
EndSplineSet
Validated: 5
EndChar

StartChar: ampersand
Encoding: 38 38 9
Width: 700
GlyphClass: 1
Flags: W
LayerCount: 2
Fore
SplineSet
500 400 m 1,0,-1
 600 400 l 1,1,-1
 600 0 l 1,2,-1
 200 0 l 1,3,-1
 200 100 l 1,4,-1
 500 100 l 1,5,-1
 500 400 l 1,0,-1
100 400 m 1,6,-1
 200 400 l 1,7,-1
 200 100 l 1,8,-1
 100 100 l 1,9,-1
 100 400 l 1,6,-1
200 500 m 1,10,-1
 500 500 l 1,11,-1
 500 400 l 1,12,-1
 200 400 l 1,13,-1
 200 500 l 1,10,-1
100 800 m 1,14,-1
 200 800 l 1,15,-1
 200 500 l 1,16,-1
 100 500 l 1,17,-1
 100 800 l 1,14,-1
200 900 m 1,18,-1
 500 900 l 1,19,-1
 500 800 l 1,20,-1
 200 800 l 1,21,-1
 200 900 l 1,18,-1
500 800 m 1,22,-1
 600 800 l 1,23,-1
 600 700 l 1,24,-1
 500 700 l 1,25,-1
 500 800 l 1,22,-1
EndSplineSet
Validated: 5
EndChar

StartChar: quotesingle
Encoding: 39 39 10
Width: 500
GlyphClass: 1
Flags: W
LayerCount: 2
Fore
SplineSet
200 900 m 1,0,-1
 300 900 l 1,1,-1
 300 600 l 1,2,-1
 200 600 l 1,3,-1
 200 900 l 1,0,-1
EndSplineSet
Validated: 1
EndChar

StartChar: parenleft
Encoding: 40 40 11
Width: 700
GlyphClass: 1
Flags: W
LayerCount: 2
Fore
SplineSet
500 100 m 1,0,-1
 600 100 l 1,1,-1
 600 0 l 1,2,-1
 500 0 l 1,3,-1
 500 100 l 1,0,-1
400 200 m 1,4,-1
 500 200 l 1,5,-1
 500 100 l 1,6,-1
 400 100 l 1,7,-1
 400 200 l 1,4,-1
300 700 m 1,8,-1
 400 700 l 1,9,-1
 400 200 l 1,10,-1
 300 200 l 1,11,-1
 300 700 l 1,8,-1
400 800 m 1,12,-1
 500 800 l 1,13,-1
 500 700 l 1,14,-1
 400 700 l 1,15,-1
 400 800 l 1,12,-1
500 900 m 1,16,-1
 600 900 l 1,17,-1
 600 800 l 1,18,-1
 500 800 l 1,19,-1
 500 900 l 1,16,-1
EndSplineSet
Validated: 5
EndChar

StartChar: parenright
Encoding: 41 41 12
Width: 700
GlyphClass: 1
Flags: W
LayerCount: 2
Fore
SplineSet
100 100 m 1,0,-1
 200 100 l 1,1,-1
 200 0 l 1,2,-1
 100 0 l 1,3,-1
 100 100 l 1,0,-1
200 200 m 1,4,-1
 300 200 l 1,5,-1
 300 100 l 1,6,-1
 200 100 l 1,7,-1
 200 200 l 1,4,-1
300 700 m 1,8,-1
 400 700 l 1,9,-1
 400 200 l 1,10,-1
 300 200 l 1,11,-1
 300 700 l 1,8,-1
200 800 m 1,12,-1
 300 800 l 1,13,-1
 300 700 l 1,14,-1
 200 700 l 1,15,-1
 200 800 l 1,12,-1
100 900 m 1,16,-1
 200 900 l 1,17,-1
 200 800 l 1,18,-1
 100 800 l 1,19,-1
 100 900 l 1,16,-1
EndSplineSet
Validated: 5
EndChar

StartChar: asterisk
Encoding: 42 42 13
Width: 700
GlyphClass: 1
Flags: W
LayerCount: 2
Fore
SplineSet
500 600 m 1,0,-1
 600 600 l 1,1,-1
 600 500 l 1,2,-1
 500 500 l 1,3,-1
 500 600 l 1,0,-1
100 600 m 1,4,-1
 200 600 l 1,5,-1
 200 500 l 1,6,-1
 100 500 l 1,7,-1
 100 600 l 1,4,-1
100 800 m 1,8,-1
 200 800 l 1,9,-1
 200 700 l 1,10,-1
 100 700 l 1,11,-1
 100 800 l 1,8,-1
500 800 m 1,12,-1
 600 800 l 1,13,-1
 600 700 l 1,14,-1
 500 700 l 1,15,-1
 500 800 l 1,12,-1
300 900 m 1,16,-1
 400 900 l 1,17,-1
 400 700 l 1,18,-1
 500 700 l 1,19,-1
 500 600 l 1,20,-1
 400 600 l 1,21,-1
 400 400 l 1,22,-1
 300 400 l 1,23,-1
 300 600 l 1,24,-1
 200 600 l 1,25,-1
 200 700 l 1,26,-1
 300 700 l 1,27,-1
 300 900 l 1,16,-1
EndSplineSet
Validated: 5
EndChar

StartChar: plus
Encoding: 43 43 14
Width: 700
GlyphClass: 1
Flags: W
LayerCount: 2
Fore
SplineSet
300 700 m 1,0,-1
 400 700 l 1,1,-1
 400 500 l 1,2,-1
 600 500 l 1,3,-1
 600 400 l 1,4,-1
 400 400 l 1,5,-1
 400 200 l 1,6,-1
 300 200 l 1,7,-1
 300 400 l 1,8,-1
 100 400 l 1,9,-1
 100 500 l 1,10,-1
 300 500 l 1,11,-1
 300 700 l 1,0,-1
EndSplineSet
Validated: 1
EndChar

StartChar: comma
Encoding: 44 44 15
Width: 500
GlyphClass: 1
Flags: W
LayerCount: 2
Fore
SplineSet
100 -100 m 1,0,-1
 200 -100 l 1,1,-1
 200 -200 l 1,2,-1
 100 -200 l 1,3,-1
 100 -100 l 1,0,-1
200 100 m 1,4,-1
 300 100 l 1,5,-1
 300 -100 l 1,6,-1
 200 -100 l 1,7,-1
 200 100 l 1,4,-1
EndSplineSet
Validated: 5
EndChar

StartChar: hyphen
Encoding: 45 45 16
Width: 600
GlyphClass: 1
Flags: W
LayerCount: 2
Fore
SplineSet
100 500 m 1,0,-1
 500 500 l 1,1,-1
 500 400 l 1,2,-1
 100 400 l 1,3,-1
 100 500 l 1,0,-1
EndSplineSet
Validated: 1
EndChar

StartChar: period
Encoding: 46 46 17
Width: 500
GlyphClass: 1
Flags: W
LayerCount: 2
Fore
SplineSet
200 100 m 1,0,-1
 300 100 l 1,1,-1
 300 0 l 1,2,-1
 200 0 l 1,3,-1
 200 100 l 1,0,-1
EndSplineSet
Validated: 1
EndChar

StartChar: slash
Encoding: 47 47 18
Width: 500
GlyphClass: 1
Flags: W
LayerCount: 2
Fore
SplineSet
100 300 m 1,0,-1
 200 300 l 1,1,-1
 200 0 l 1,2,-1
 100 0 l 1,3,-1
 100 300 l 1,0,-1
200 600 m 1,4,-1
 300 600 l 1,5,-1
 300 300 l 1,6,-1
 200 300 l 1,7,-1
 200 600 l 1,4,-1
300 900 m 1,8,-1
 400 900 l 1,9,-1
 400 600 l 1,10,-1
 300 600 l 1,11,-1
 300 900 l 1,8,-1
EndSplineSet
Validated: 5
EndChar

StartChar: zero
Encoding: 48 48 19
Width: 700
GlyphClass: 1
Flags: W
LayerCount: 2
Fore
SplineSet
200 100 m 1,0,-1
 500 100 l 1,1,-1
 500 0 l 1,2,-1
 200 0 l 1,3,-1
 200 100 l 1,0,-1
500 800 m 1,4,-1
 600 800 l 1,5,-1
 600 100 l 1,6,-1
 500 100 l 1,7,-1
 500 500 l 1,8,-1
 400 500 l 1,9,-1
 400 600 l 1,10,-1
 500 600 l 1,11,-1
 500 800 l 1,4,-1
300 500 m 1,12,-1
 400 500 l 1,13,-1
 400 400 l 1,14,-1
 300 400 l 1,15,-1
 300 500 l 1,12,-1
100 800 m 1,16,-1
 200 800 l 1,17,-1
 200 400 l 1,18,-1
 300 400 l 1,19,-1
 300 300 l 1,20,-1
 200 300 l 1,21,-1
 200 100 l 1,22,-1
 100 100 l 1,23,-1
 100 800 l 1,16,-1
200 900 m 1,24,-1
 500 900 l 1,25,-1
 500 800 l 1,26,-1
 200 800 l 1,27,-1
 200 900 l 1,24,-1
EndSplineSet
Validated: 5
EndChar

StartChar: one
Encoding: 49 49 20
Width: 700
GlyphClass: 1
Flags: W
LayerCount: 2
Fore
SplineSet
200 700 m 1,0,-1
 300 700 l 1,1,-1
 300 600 l 1,2,-1
 200 600 l 1,3,-1
 200 700 l 1,0,-1
400 900 m 1,4,-1
 500 900 l 1,5,-1
 500 0 l 1,6,-1
 400 0 l 1,7,-1
 400 700 l 1,8,-1
 300 700 l 1,9,-1
 300 800 l 1,10,-1
 400 800 l 1,11,-1
 400 900 l 1,4,-1
EndSplineSet
Validated: 5
EndChar

StartChar: two
Encoding: 50 50 21
Width: 700
GlyphClass: 1
Flags: W
LayerCount: 2
Fore
SplineSet
100 300 m 1,0,-1
 200 300 l 1,1,-1
 200 100 l 1,2,-1
 600 100 l 1,3,-1
 600 0 l 1,4,-1
 100 0 l 1,5,-1
 100 300 l 1,0,-1
200 300 m 1,6,-1
 200 400 l 1,7,-1
 300 400 l 1,8,-1
 300 300 l 1,9,-1
 200 300 l 1,6,-1
300 500 m 1,10,-1
 400 500 l 1,11,-1
 400 400 l 1,12,-1
 300 400 l 1,13,-1
 300 500 l 1,10,-1
400 600 m 1,14,-1
 500 600 l 1,15,-1
 500 500 l 1,16,-1
 400 500 l 1,17,-1
 400 600 l 1,14,-1
500 800 m 1,18,-1
 600 800 l 1,19,-1
 600 600 l 1,20,-1
 500 600 l 1,21,-1
 500 800 l 1,18,-1
200 900 m 1,22,-1
 500 900 l 1,23,-1
 500 800 l 1,24,-1
 200 800 l 1,25,-1
 200 900 l 1,22,-1
100 800 m 1,26,-1
 200 800 l 1,27,-1
 200 700 l 1,28,-1
 100 700 l 1,29,-1
 100 800 l 1,26,-1
EndSplineSet
Validated: 5
EndChar

StartChar: three
Encoding: 51 51 22
Width: 700
GlyphClass: 1
Flags: W
LayerCount: 2
Fore
SplineSet
100 200 m 1,0,-1
 200 200 l 1,1,-1
 200 100 l 1,2,-1
 100 100 l 1,3,-1
 100 200 l 1,0,-1
200 100 m 1,4,-1
 500 100 l 1,5,-1
 500 0 l 1,6,-1
 200 0 l 1,7,-1
 200 100 l 1,4,-1
500 400 m 1,8,-1
 600 400 l 1,9,-1
 600 100 l 1,10,-1
 500 100 l 1,11,-1
 500 400 l 1,8,-1
300 500 m 1,12,-1
 500 500 l 1,13,-1
 500 400 l 1,14,-1
 300 400 l 1,15,-1
 300 500 l 1,12,-1
500 800 m 1,16,-1
 600 800 l 1,17,-1
 600 500 l 1,18,-1
 500 500 l 1,19,-1
 500 800 l 1,16,-1
200 900 m 1,20,-1
 500 900 l 1,21,-1
 500 800 l 1,22,-1
 200 800 l 1,23,-1
 200 900 l 1,20,-1
100 800 m 1,24,-1
 200 800 l 1,25,-1
 200 700 l 1,26,-1
 100 700 l 1,27,-1
 100 800 l 1,24,-1
EndSplineSet
Validated: 5
EndChar

StartChar: four
Encoding: 52 52 23
Width: 700
GlyphClass: 1
Flags: W
LayerCount: 2
Fore
SplineSet
500 900 m 1,0,-1
 600 900 l 1,1,-1
 600 0 l 1,2,-1
 500 0 l 1,3,-1
 500 300 l 1,4,-1
 100 300 l 1,5,-1
 100 500 l 1,6,-1
 200 500 l 1,7,-1
 200 400 l 1,8,-1
 500 400 l 1,9,-1
 500 700 l 1,10,-1
 400 700 l 1,11,-1
 400 800 l 1,12,-1
 500 800 l 1,13,-1
 500 900 l 1,0,-1
200 600 m 1,14,-1
 300 600 l 1,15,-1
 300 500 l 1,16,-1
 200 500 l 1,17,-1
 200 600 l 1,14,-1
300 700 m 1,18,-1
 400 700 l 1,19,-1
 400 600 l 1,20,-1
 300 600 l 1,21,-1
 300 700 l 1,18,-1
EndSplineSet
Validated: 5
EndChar

StartChar: five
Encoding: 53 53 24
Width: 700
GlyphClass: 1
Flags: W
LayerCount: 2
Fore
SplineSet
100 200 m 1,0,-1
 200 200 l 1,1,-1
 200 100 l 1,2,-1
 100 100 l 1,3,-1
 100 200 l 1,0,-1
200 100 m 1,4,-1
 500 100 l 1,5,-1
 500 0 l 1,6,-1
 200 0 l 1,7,-1
 200 100 l 1,4,-1
500 500 m 1,8,-1
 600 500 l 1,9,-1
 600 100 l 1,10,-1
 500 100 l 1,11,-1
 500 500 l 1,8,-1
100 900 m 1,12,-1
 600 900 l 1,13,-1
 600 800 l 1,14,-1
 200 800 l 1,15,-1
 200 600 l 1,16,-1
 500 600 l 1,17,-1
 500 500 l 1,18,-1
 100 500 l 1,19,-1
 100 900 l 1,12,-1
EndSplineSet
Validated: 5
EndChar

StartChar: six
Encoding: 54 54 25
Width: 700
GlyphClass: 1
Flags: W
LayerCount: 2
Fore
SplineSet
500 400 m 1,0,-1
 600 400 l 1,1,-1
 600 100 l 1,2,-1
 500 100 l 1,3,-1
 500 400 l 1,0,-1
200 100 m 1,4,-1
 500 100 l 1,5,-1
 500 0 l 1,6,-1
 200 0 l 1,7,-1
 200 100 l 1,4,-1
100 800 m 1,8,-1
 200 800 l 1,9,-1
 200 500 l 1,10,-1
 500 500 l 1,11,-1
 500 400 l 1,12,-1
 200 400 l 1,13,-1
 200 100 l 1,14,-1
 100 100 l 1,15,-1
 100 800 l 1,8,-1
200 900 m 1,16,-1
 500 900 l 1,17,-1
 500 800 l 1,18,-1
 200 800 l 1,19,-1
 200 900 l 1,16,-1
500 800 m 1,20,-1
 600 800 l 1,21,-1
 600 700 l 1,22,-1
 500 700 l 1,23,-1
 500 800 l 1,20,-1
EndSplineSet
Validated: 5
EndChar

StartChar: seven
Encoding: 55 55 26
Width: 700
GlyphClass: 1
Flags: W
LayerCount: 2
Fore
SplineSet
100 300 m 1,0,-1
 200 300 l 1,1,-1
 200 0 l 1,2,-1
 100 0 l 1,3,-1
 100 300 l 1,0,-1
200 400 m 1,4,-1
 300 400 l 1,5,-1
 300 300 l 1,6,-1
 200 300 l 1,7,-1
 200 400 l 1,4,-1
300 500 m 1,8,-1
 400 500 l 1,9,-1
 400 400 l 1,10,-1
 300 400 l 1,11,-1
 300 500 l 1,8,-1
400 600 m 1,12,-1
 500 600 l 1,13,-1
 500 500 l 1,14,-1
 400 500 l 1,15,-1
 400 600 l 1,12,-1
100 900 m 1,16,-1
 600 900 l 1,17,-1
 600 600 l 1,18,-1
 500 600 l 1,19,-1
 500 800 l 1,20,-1
 100 800 l 1,21,-1
 100 900 l 1,16,-1
EndSplineSet
Validated: 5
EndChar

StartChar: eight
Encoding: 56 56 27
Width: 700
GlyphClass: 1
Flags: W
LayerCount: 2
Fore
SplineSet
100 800 m 1,0,-1
 200 800 l 1,1,-1
 200 500 l 1,2,-1
 100 500 l 1,3,-1
 100 800 l 1,0,-1
500 400 m 1,4,-1
 600 400 l 1,5,-1
 600 100 l 1,6,-1
 500 100 l 1,7,-1
 500 400 l 1,4,-1
200 100 m 1,8,-1
 500 100 l 1,9,-1
 500 0 l 1,10,-1
 200 0 l 1,11,-1
 200 100 l 1,8,-1
100 400 m 1,12,-1
 200 400 l 1,13,-1
 200 100 l 1,14,-1
 100 100 l 1,15,-1
 100 400 l 1,12,-1
200 500 m 1,16,-1
 500 500 l 1,17,-1
 500 400 l 1,18,-1
 200 400 l 1,19,-1
 200 500 l 1,16,-1
500 800 m 1,20,-1
 600 800 l 1,21,-1
 600 500 l 1,22,-1
 500 500 l 1,23,-1
 500 800 l 1,20,-1
200 900 m 1,24,-1
 500 900 l 1,25,-1
 500 800 l 1,26,-1
 200 800 l 1,27,-1
 200 900 l 1,24,-1
EndSplineSet
Validated: 5
EndChar

StartChar: nine
Encoding: 57 57 28
Width: 700
GlyphClass: 1
Flags: W
LayerCount: 2
Fore
SplineSet
100 800 m 1,0,-1
 200 800 l 1,1,-1
 200 500 l 1,2,-1
 100 500 l 1,3,-1
 100 800 l 1,0,-1
200 900 m 1,4,-1
 500 900 l 1,5,-1
 500 800 l 1,6,-1
 200 800 l 1,7,-1
 200 900 l 1,4,-1
500 800 m 1,8,-1
 600 800 l 1,9,-1
 600 100 l 1,10,-1
 500 100 l 1,11,-1
 500 400 l 1,12,-1
 200 400 l 1,13,-1
 200 500 l 1,14,-1
 500 500 l 1,15,-1
 500 800 l 1,8,-1
200 100 m 1,16,-1
 500 100 l 1,17,-1
 500 0 l 1,18,-1
 200 0 l 1,19,-1
 200 100 l 1,16,-1
100 200 m 1,20,-1
 200 200 l 1,21,-1
 200 100 l 1,22,-1
 100 100 l 1,23,-1
 100 200 l 1,20,-1
EndSplineSet
Validated: 5
EndChar

StartChar: less
Encoding: 60 60 31
Width: 500
GlyphClass: 1
Flags: W
LayerCount: 2
Fore
SplineSet
100 500 m 1,0,-1
 200 500 l 1,1,-1
 200 400 l 1,2,-1
 100 400 l 1,3,-1
 100 500 l 1,0,-1
200 600 m 1,4,-1
 300 600 l 1,5,-1
 300 500 l 1,6,-1
 200 500 l 1,7,-1
 200 600 l 1,4,-1
300 700 m 1,8,-1
 400 700 l 1,9,-1
 400 600 l 1,10,-1
 300 600 l 1,11,-1
 300 700 l 1,8,-1
300 300 m 1,12,-1
 400 300 l 1,13,-1
 400 200 l 1,14,-1
 300 200 l 1,15,-1
 300 300 l 1,12,-1
200 400 m 1,16,-1
 300 400 l 1,17,-1
 300 300 l 1,18,-1
 200 300 l 1,19,-1
 200 400 l 1,16,-1
EndSplineSet
Validated: 5
EndChar

StartChar: equal
Encoding: 61 61 32
Width: 600
GlyphClass: 1
Flags: W
LayerCount: 2
Fore
SplineSet
100 600 m 1,0,-1
 500 600 l 1,1,-1
 500 500 l 1,2,-1
 100 500 l 1,3,-1
 100 600 l 1,0,-1
100 400 m 1,4,-1
 500 400 l 1,5,-1
 500 300 l 1,6,-1
 100 300 l 1,7,-1
 100 400 l 1,4,-1
EndSplineSet
Validated: 1
EndChar

StartChar: greater
Encoding: 62 62 33
Width: 500
GlyphClass: 1
Flags: W
LayerCount: 2
Fore
SplineSet
100 300 m 1,0,-1
 200 300 l 1,1,-1
 200 200 l 1,2,-1
 100 200 l 1,3,-1
 100 300 l 1,0,-1
200 400 m 1,4,-1
 300 400 l 1,5,-1
 300 300 l 1,6,-1
 200 300 l 1,7,-1
 200 400 l 1,4,-1
300 500 m 1,8,-1
 400 500 l 1,9,-1
 400 400 l 1,10,-1
 300 400 l 1,11,-1
 300 500 l 1,8,-1
200 600 m 1,12,-1
 300 600 l 1,13,-1
 300 500 l 1,14,-1
 200 500 l 1,15,-1
 200 600 l 1,12,-1
100 700 m 1,16,-1
 200 700 l 1,17,-1
 200 600 l 1,18,-1
 100 600 l 1,19,-1
 100 700 l 1,16,-1
EndSplineSet
Validated: 5
EndChar

StartChar: question
Encoding: 63 63 34
Width: 700
GlyphClass: 1
Flags: W
LayerCount: 2
Fore
SplineSet
300 100 m 1,0,-1
 400 100 l 1,1,-1
 400 0 l 1,2,-1
 300 0 l 1,3,-1
 300 100 l 1,0,-1
300 500 m 1,4,-1
 400 500 l 1,5,-1
 400 200 l 1,6,-1
 300 200 l 1,7,-1
 300 500 l 1,4,-1
400 600 m 1,8,-1
 500 600 l 1,9,-1
 500 500 l 1,10,-1
 400 500 l 1,11,-1
 400 600 l 1,8,-1
500 800 m 1,12,-1
 600 800 l 1,13,-1
 600 600 l 1,14,-1
 500 600 l 1,15,-1
 500 800 l 1,12,-1
200 900 m 1,16,-1
 500 900 l 1,17,-1
 500 800 l 1,18,-1
 200 800 l 1,19,-1
 200 900 l 1,16,-1
100 800 m 1,20,-1
 200 800 l 1,21,-1
 200 700 l 1,22,-1
 100 700 l 1,23,-1
 100 800 l 1,20,-1
EndSplineSet
Validated: 5
EndChar

StartChar: at
Encoding: 64 64 35
Width: 900
GlyphClass: 1
Flags: W
LayerCount: 2
Fore
SplineSet
300 600 m 1,0,-1
 400 600 l 1,1,-1
 400 300 l 1,2,-1
 300 300 l 1,3,-1
 300 600 l 1,0,-1
400 700 m 1,4,-1
 600 700 l 1,5,-1
 600 300 l 1,6,-1
 700 300 l 1,7,-1
 700 200 l 1,8,-1
 400 200 l 1,9,-1
 400 300 l 1,10,-1
 500 300 l 1,11,-1
 500 600 l 1,12,-1
 400 600 l 1,13,-1
 400 700 l 1,4,-1
700 800 m 1,14,-1
 800 800 l 1,15,-1
 800 300 l 1,16,-1
 700 300 l 1,17,-1
 700 800 l 1,14,-1
200 100 m 1,18,-1
 700 100 l 1,19,-1
 700 0 l 1,20,-1
 200 0 l 1,21,-1
 200 100 l 1,18,-1
100 800 m 1,22,-1
 200 800 l 1,23,-1
 200 100 l 1,24,-1
 100 100 l 1,25,-1
 100 800 l 1,22,-1
200 900 m 1,26,-1
 700 900 l 1,27,-1
 700 800 l 1,28,-1
 200 800 l 1,29,-1
 200 900 l 1,26,-1
EndSplineSet
Validated: 5
EndChar

StartChar: A
Encoding: 65 65 36
Width: 700
GlyphClass: 1
Flags: W
LayerCount: 2
Fore
SplineSet
100 800 m 1,0,-1
 200 800 l 1,1,-1
 200 400 l 1,2,-1
 500 400 l 1,3,-1
 500 800 l 1,4,-1
 600 800 l 1,5,-1
 600 0 l 1,6,-1
 500 0 l 1,7,-1
 500 300 l 1,8,-1
 200 300 l 1,9,-1
 200 0 l 1,10,-1
 100 0 l 1,11,-1
 100 800 l 1,0,-1
200 900 m 1,12,-1
 500 900 l 1,13,-1
 500 800 l 1,14,-1
 200 800 l 1,15,-1
 200 900 l 1,12,-1
EndSplineSet
Validated: 5
EndChar

StartChar: B
Encoding: 66 66 37
Width: 700
GlyphClass: 1
Flags: W
LayerCount: 2
Fore
SplineSet
500 800 m 1,0,-1
 600 800 l 1,1,-1
 600 500 l 1,2,-1
 500 500 l 1,3,-1
 500 800 l 1,0,-1
500 400 m 1,4,-1
 600 400 l 1,5,-1
 600 100 l 1,6,-1
 500 100 l 1,7,-1
 500 400 l 1,4,-1
100 900 m 1,8,-1
 500 900 l 1,9,-1
 500 800 l 1,10,-1
 200 800 l 1,11,-1
 200 500 l 1,12,-1
 500 500 l 1,13,-1
 500 400 l 1,14,-1
 200 400 l 1,15,-1
 200 100 l 1,16,-1
 500 100 l 1,17,-1
 500 0 l 1,18,-1
 100 0 l 1,19,-1
 100 900 l 1,8,-1
EndSplineSet
Validated: 5
EndChar

StartChar: C
Encoding: 67 67 38
Width: 700
GlyphClass: 1
Flags: W
LayerCount: 2
Fore
SplineSet
500 200 m 1,0,-1
 600 200 l 1,1,-1
 600 100 l 1,2,-1
 500 100 l 1,3,-1
 500 200 l 1,0,-1
200 100 m 1,4,-1
 500 100 l 1,5,-1
 500 0 l 1,6,-1
 200 0 l 1,7,-1
 200 100 l 1,4,-1
100 800 m 1,8,-1
 200 800 l 1,9,-1
 200 100 l 1,10,-1
 100 100 l 1,11,-1
 100 800 l 1,8,-1
200 900 m 1,12,-1
 500 900 l 1,13,-1
 500 800 l 1,14,-1
 200 800 l 1,15,-1
 200 900 l 1,12,-1
500 800 m 1,16,-1
 600 800 l 1,17,-1
 600 700 l 1,18,-1
 500 700 l 1,19,-1
 500 800 l 1,16,-1
EndSplineSet
Validated: 5
EndChar

StartChar: D
Encoding: 68 68 39
Width: 700
GlyphClass: 1
Flags: W
LayerCount: 2
Fore
SplineSet
500 800 m 1,0,-1
 600 800 l 1,1,-1
 600 100 l 1,2,-1
 500 100 l 1,3,-1
 500 800 l 1,0,-1
100 900 m 1,4,-1
 500 900 l 1,5,-1
 500 800 l 1,6,-1
 200 800 l 1,7,-1
 200 100 l 1,8,-1
 500 100 l 1,9,-1
 500 0 l 1,10,-1
 100 0 l 1,11,-1
 100 900 l 1,4,-1
EndSplineSet
Validated: 5
EndChar

StartChar: E
Encoding: 69 69 40
Width: 700
GlyphClass: 1
Flags: W
LayerCount: 2
Fore
SplineSet
100 900 m 1,0,-1
 600 900 l 1,1,-1
 600 800 l 1,2,-1
 200 800 l 1,3,-1
 200 500 l 1,4,-1
 400 500 l 1,5,-1
 400 400 l 1,6,-1
 200 400 l 1,7,-1
 200 100 l 1,8,-1
 600 100 l 1,9,-1
 600 0 l 1,10,-1
 100 0 l 1,11,-1
 100 900 l 1,0,-1
EndSplineSet
Validated: 1
EndChar

StartChar: F
Encoding: 70 70 41
Width: 700
GlyphClass: 1
Flags: W
LayerCount: 2
Fore
SplineSet
100 900 m 1,0,-1
 600 900 l 1,1,-1
 600 800 l 1,2,-1
 200 800 l 1,3,-1
 200 500 l 1,4,-1
 400 500 l 1,5,-1
 400 400 l 1,6,-1
 200 400 l 1,7,-1
 200 0 l 1,8,-1
 100 0 l 1,9,-1
 100 900 l 1,0,-1
EndSplineSet
Validated: 1
EndChar

StartChar: G
Encoding: 71 71 42
Width: 700
GlyphClass: 1
Flags: W
LayerCount: 2
Fore
SplineSet
400 500 m 1,0,-1
 600 500 l 1,1,-1
 600 0 l 1,2,-1
 200 0 l 1,3,-1
 200 100 l 1,4,-1
 500 100 l 1,5,-1
 500 400 l 1,6,-1
 400 400 l 1,7,-1
 400 500 l 1,0,-1
100 800 m 1,8,-1
 200 800 l 1,9,-1
 200 100 l 1,10,-1
 100 100 l 1,11,-1
 100 800 l 1,8,-1
200 900 m 1,12,-1
 500 900 l 1,13,-1
 500 800 l 1,14,-1
 200 800 l 1,15,-1
 200 900 l 1,12,-1
500 800 m 1,16,-1
 600 800 l 1,17,-1
 600 700 l 1,18,-1
 500 700 l 1,19,-1
 500 800 l 1,16,-1
EndSplineSet
Validated: 5
EndChar

StartChar: H
Encoding: 72 72 43
Width: 700
GlyphClass: 1
Flags: W
LayerCount: 2
Fore
SplineSet
100 900 m 1,0,-1
 200 900 l 1,1,-1
 200 500 l 1,2,-1
 500 500 l 1,3,-1
 500 900 l 1,4,-1
 600 900 l 1,5,-1
 600 0 l 1,6,-1
 500 0 l 1,7,-1
 500 400 l 1,8,-1
 200 400 l 1,9,-1
 200 0 l 1,10,-1
 100 0 l 1,11,-1
 100 900 l 1,0,-1
EndSplineSet
Validated: 1
EndChar

StartChar: I
Encoding: 73 73 44
Width: 500
GlyphClass: 1
Flags: W
LayerCount: 2
Fore
SplineSet
200 900 m 1,0,-1
 300 900 l 1,1,-1
 300 0 l 1,2,-1
 200 0 l 1,3,-1
 200 900 l 1,0,-1
EndSplineSet
Validated: 1
EndChar

StartChar: J
Encoding: 74 74 45
Width: 700
GlyphClass: 1
Flags: W
LayerCount: 2
Fore
SplineSet
500 900 m 1,0,-1
 600 900 l 1,1,-1
 600 100 l 1,2,-1
 500 100 l 1,3,-1
 500 900 l 1,0,-1
200 100 m 1,4,-1
 500 100 l 1,5,-1
 500 0 l 1,6,-1
 200 0 l 1,7,-1
 200 100 l 1,4,-1
100 200 m 1,8,-1
 200 200 l 1,9,-1
 200 100 l 1,10,-1
 100 100 l 1,11,-1
 100 200 l 1,8,-1
EndSplineSet
Validated: 5
EndChar

StartChar: K
Encoding: 75 75 46
Width: 700
GlyphClass: 1
Flags: W
LayerCount: 2
Fore
SplineSet
500 200 m 1,0,-1
 600 200 l 1,1,-1
 600 0 l 1,2,-1
 500 0 l 1,3,-1
 500 200 l 1,0,-1
400 300 m 1,4,-1
 500 300 l 1,5,-1
 500 200 l 1,6,-1
 400 200 l 1,7,-1
 400 300 l 1,4,-1
300 400 m 1,8,-1
 400 400 l 1,9,-1
 400 300 l 1,10,-1
 300 300 l 1,11,-1
 300 400 l 1,8,-1
100 900 m 1,12,-1
 200 900 l 1,13,-1
 200 500 l 1,14,-1
 300 500 l 1,15,-1
 300 400 l 1,16,-1
 200 400 l 1,17,-1
 200 0 l 1,18,-1
 100 0 l 1,19,-1
 100 900 l 1,12,-1
300 600 m 1,20,-1
 400 600 l 1,21,-1
 400 500 l 1,22,-1
 300 500 l 1,23,-1
 300 600 l 1,20,-1
400 700 m 1,24,-1
 500 700 l 1,25,-1
 500 600 l 1,26,-1
 400 600 l 1,27,-1
 400 700 l 1,24,-1
500 900 m 1,28,-1
 600 900 l 1,29,-1
 600 700 l 1,30,-1
 500 700 l 1,31,-1
 500 900 l 1,28,-1
EndSplineSet
Validated: 5
EndChar

StartChar: L
Encoding: 76 76 47
Width: 700
GlyphClass: 1
Flags: W
LayerCount: 2
Fore
SplineSet
100 900 m 1,0,-1
 200 900 l 1,1,-1
 200 100 l 1,2,-1
 600 100 l 1,3,-1
 600 0 l 1,4,-1
 100 0 l 1,5,-1
 100 900 l 1,0,-1
EndSplineSet
Validated: 1
EndChar

StartChar: M
Encoding: 77 77 48
Width: 900
GlyphClass: 1
Flags: W
LayerCount: 2
Fore
SplineSet
700 900 m 1,0,-1
 800 900 l 1,1,-1
 800 0 l 1,2,-1
 700 0 l 1,3,-1
 700 600 l 1,4,-1
 600 600 l 1,5,-1
 600 700 l 1,6,-1
 700 700 l 1,7,-1
 700 900 l 1,0,-1
500 600 m 1,8,-1
 600 600 l 1,9,-1
 600 500 l 1,10,-1
 500 500 l 1,11,-1
 500 600 l 1,8,-1
400 500 m 1,12,-1
 500 500 l 1,13,-1
 500 400 l 1,14,-1
 400 400 l 1,15,-1
 400 500 l 1,12,-1
300 600 m 1,16,-1
 400 600 l 1,17,-1
 400 500 l 1,18,-1
 300 500 l 1,19,-1
 300 600 l 1,16,-1
100 900 m 1,20,-1
 200 900 l 1,21,-1
 200 700 l 1,22,-1
 300 700 l 1,23,-1
 300 600 l 1,24,-1
 200 600 l 1,25,-1
 200 0 l 1,26,-1
 100 0 l 1,27,-1
 100 900 l 1,20,-1
EndSplineSet
Validated: 5
EndChar

StartChar: N
Encoding: 78 78 49
Width: 700
GlyphClass: 1
Flags: W
LayerCount: 2
Fore
SplineSet
500 900 m 1,0,-1
 600 900 l 1,1,-1
 600 0 l 1,2,-1
 500 0 l 1,3,-1
 500 300 l 1,4,-1
 400 300 l 1,5,-1
 400 400 l 1,6,-1
 500 400 l 1,7,-1
 500 900 l 1,0,-1
300 500 m 1,8,-1
 400 500 l 1,9,-1
 400 400 l 1,10,-1
 300 400 l 1,11,-1
 300 500 l 1,8,-1
100 900 m 1,12,-1
 200 900 l 1,13,-1
 200 600 l 1,14,-1
 300 600 l 1,15,-1
 300 500 l 1,16,-1
 200 500 l 1,17,-1
 200 0 l 1,18,-1
 100 0 l 1,19,-1
 100 900 l 1,12,-1
EndSplineSet
Validated: 5
EndChar

StartChar: O
Encoding: 79 79 50
Width: 700
GlyphClass: 1
Flags: W
LayerCount: 2
Fore
SplineSet
500 800 m 1,0,-1
 600 800 l 1,1,-1
 600 100 l 1,2,-1
 500 100 l 1,3,-1
 500 800 l 1,0,-1
200 100 m 1,4,-1
 500 100 l 1,5,-1
 500 0 l 1,6,-1
 200 0 l 1,7,-1
 200 100 l 1,4,-1
100 800 m 1,8,-1
 200 800 l 1,9,-1
 200 100 l 1,10,-1
 100 100 l 1,11,-1
 100 800 l 1,8,-1
200 900 m 1,12,-1
 500 900 l 1,13,-1
 500 800 l 1,14,-1
 200 800 l 1,15,-1
 200 900 l 1,12,-1
EndSplineSet
Validated: 5
EndChar

StartChar: P
Encoding: 80 80 51
Width: 700
GlyphClass: 1
Flags: W
LayerCount: 2
Fore
SplineSet
500 800 m 1,0,-1
 600 800 l 1,1,-1
 600 500 l 1,2,-1
 500 500 l 1,3,-1
 500 800 l 1,0,-1
100 900 m 1,4,-1
 500 900 l 1,5,-1
 500 800 l 1,6,-1
 200 800 l 1,7,-1
 200 500 l 1,8,-1
 500 500 l 1,9,-1
 500 400 l 1,10,-1
 200 400 l 1,11,-1
 200 0 l 1,12,-1
 100 0 l 1,13,-1
 100 900 l 1,4,-1
EndSplineSet
Validated: 5
EndChar

StartChar: Q
Encoding: 81 81 52
Width: 700
GlyphClass: 1
Flags: W
LayerCount: 2
Fore
SplineSet
500 100 m 1,0,-1
 600 100 l 1,1,-1
 600 0 l 1,2,-1
 500 0 l 1,3,-1
 500 100 l 1,0,-1
400 200 m 1,4,-1
 500 200 l 1,5,-1
 500 100 l 1,6,-1
 400 100 l 1,7,-1
 400 200 l 1,4,-1
300 300 m 1,8,-1
 400 300 l 1,9,-1
 400 200 l 1,10,-1
 300 200 l 1,11,-1
 300 300 l 1,8,-1
200 100 m 1,12,-1
 400 100 l 1,13,-1
 400 0 l 1,14,-1
 200 0 l 1,15,-1
 200 100 l 1,12,-1
100 800 m 1,16,-1
 200 800 l 1,17,-1
 200 100 l 1,18,-1
 100 100 l 1,19,-1
 100 800 l 1,16,-1
200 900 m 1,20,-1
 500 900 l 1,21,-1
 500 800 l 1,22,-1
 200 800 l 1,23,-1
 200 900 l 1,20,-1
500 800 m 1,24,-1
 600 800 l 1,25,-1
 600 200 l 1,26,-1
 500 200 l 1,27,-1
 500 800 l 1,24,-1
EndSplineSet
Validated: 5
EndChar

StartChar: R
Encoding: 82 82 53
Width: 700
GlyphClass: 1
Flags: W
LayerCount: 2
Fore
SplineSet
100 900 m 1,0,-1
 500 900 l 1,1,-1
 500 800 l 1,2,-1
 200 800 l 1,3,-1
 200 500 l 1,4,-1
 500 500 l 1,5,-1
 500 400 l 1,6,-1
 400 400 l 1,7,-1
 400 300 l 1,8,-1
 300 300 l 1,9,-1
 300 400 l 1,10,-1
 200 400 l 1,11,-1
 200 0 l 1,12,-1
 100 0 l 1,13,-1
 100 900 l 1,0,-1
500 800 m 1,14,-1
 600 800 l 1,15,-1
 600 500 l 1,16,-1
 500 500 l 1,17,-1
 500 800 l 1,14,-1
400 300 m 1,18,-1
 500 300 l 1,19,-1
 500 200 l 1,20,-1
 400 200 l 1,21,-1
 400 300 l 1,18,-1
500 200 m 1,22,-1
 600 200 l 1,23,-1
 600 0 l 1,24,-1
 500 0 l 1,25,-1
 500 200 l 1,22,-1
EndSplineSet
Validated: 5
EndChar

StartChar: S
Encoding: 83 83 54
Width: 700
GlyphClass: 1
Flags: W
LayerCount: 2
Fore
SplineSet
100 800 m 1,0,-1
 200 800 l 1,1,-1
 200 500 l 1,2,-1
 100 500 l 1,3,-1
 100 800 l 1,0,-1
500 400 m 1,4,-1
 600 400 l 1,5,-1
 600 100 l 1,6,-1
 500 100 l 1,7,-1
 500 400 l 1,4,-1
200 100 m 1,8,-1
 500 100 l 1,9,-1
 500 0 l 1,10,-1
 200 0 l 1,11,-1
 200 100 l 1,8,-1
100 200 m 1,12,-1
 200 200 l 1,13,-1
 200 100 l 1,14,-1
 100 100 l 1,15,-1
 100 200 l 1,12,-1
200 500 m 1,16,-1
 500 500 l 1,17,-1
 500 400 l 1,18,-1
 200 400 l 1,19,-1
 200 500 l 1,16,-1
500 800 m 1,20,-1
 600 800 l 1,21,-1
 600 700 l 1,22,-1
 500 700 l 1,23,-1
 500 800 l 1,20,-1
200 900 m 1,24,-1
 500 900 l 1,25,-1
 500 800 l 1,26,-1
 200 800 l 1,27,-1
 200 900 l 1,24,-1
EndSplineSet
Validated: 5
EndChar

StartChar: T
Encoding: 84 84 55
Width: 700
GlyphClass: 1
Flags: W
LayerCount: 2
Fore
SplineSet
100 900 m 1,0,-1
 600 900 l 1,1,-1
 600 800 l 1,2,-1
 400 800 l 1,3,-1
 400 0 l 1,4,-1
 300 0 l 1,5,-1
 300 800 l 1,6,-1
 100 800 l 1,7,-1
 100 900 l 1,0,-1
EndSplineSet
Validated: 1
EndChar

StartChar: U
Encoding: 85 85 56
Width: 700
GlyphClass: 1
Flags: W
LayerCount: 2
Fore
SplineSet
500 900 m 1,0,-1
 600 900 l 1,1,-1
 600 100 l 1,2,-1
 500 100 l 1,3,-1
 500 900 l 1,0,-1
200 100 m 1,4,-1
 500 100 l 1,5,-1
 500 0 l 1,6,-1
 200 0 l 1,7,-1
 200 100 l 1,4,-1
100 900 m 1,8,-1
 200 900 l 1,9,-1
 200 100 l 1,10,-1
 100 100 l 1,11,-1
 100 900 l 1,8,-1
EndSplineSet
Validated: 5
EndChar

StartChar: V
Encoding: 86 86 57
Width: 700
GlyphClass: 1
Flags: W
LayerCount: 2
Fore
SplineSet
500 900 m 1,0,-1
 600 900 l 1,1,-1
 600 200 l 1,2,-1
 500 200 l 1,3,-1
 500 900 l 1,0,-1
400 200 m 1,4,-1
 500 200 l 1,5,-1
 500 100 l 1,6,-1
 400 100 l 1,7,-1
 400 200 l 1,4,-1
300 100 m 1,8,-1
 400 100 l 1,9,-1
 400 0 l 1,10,-1
 300 0 l 1,11,-1
 300 100 l 1,8,-1
200 200 m 1,12,-1
 300 200 l 1,13,-1
 300 100 l 1,14,-1
 200 100 l 1,15,-1
 200 200 l 1,12,-1
100 900 m 1,16,-1
 200 900 l 1,17,-1
 200 200 l 1,18,-1
 100 200 l 1,19,-1
 100 900 l 1,16,-1
EndSplineSet
Validated: 5
EndChar

StartChar: W
Encoding: 87 87 58
Width: 900
GlyphClass: 1
Flags: W
LayerCount: 2
Fore
SplineSet
700 900 m 1,0,-1
 800 900 l 1,1,-1
 800 100 l 1,2,-1
 700 100 l 1,3,-1
 700 900 l 1,0,-1
500 100 m 1,4,-1
 700 100 l 1,5,-1
 700 0 l 1,6,-1
 500 0 l 1,7,-1
 500 100 l 1,4,-1
400 700 m 1,8,-1
 500 700 l 1,9,-1
 500 100 l 1,10,-1
 400 100 l 1,11,-1
 400 700 l 1,8,-1
200 100 m 1,12,-1
 400 100 l 1,13,-1
 400 0 l 1,14,-1
 200 0 l 1,15,-1
 200 100 l 1,12,-1
100 900 m 1,16,-1
 200 900 l 1,17,-1
 200 100 l 1,18,-1
 100 100 l 1,19,-1
 100 900 l 1,16,-1
EndSplineSet
Validated: 5
EndChar

StartChar: X
Encoding: 88 88 59
Width: 700
GlyphClass: 1
Flags: W
LayerCount: 2
Fore
SplineSet
100 300 m 1,0,-1
 200 300 l 1,1,-1
 200 0 l 1,2,-1
 100 0 l 1,3,-1
 100 300 l 1,0,-1
200 400 m 1,4,-1
 300 400 l 1,5,-1
 300 300 l 1,6,-1
 200 300 l 1,7,-1
 200 400 l 1,4,-1
300 500 m 1,8,-1
 400 500 l 1,9,-1
 400 400 l 1,10,-1
 300 400 l 1,11,-1
 300 500 l 1,8,-1
400 600 m 1,12,-1
 500 600 l 1,13,-1
 500 500 l 1,14,-1
 400 500 l 1,15,-1
 400 600 l 1,12,-1
500 900 m 1,16,-1
 600 900 l 1,17,-1
 600 600 l 1,18,-1
 500 600 l 1,19,-1
 500 900 l 1,16,-1
500 300 m 1,20,-1
 600 300 l 1,21,-1
 600 0 l 1,22,-1
 500 0 l 1,23,-1
 500 300 l 1,20,-1
400 400 m 1,24,-1
 500 400 l 1,25,-1
 500 300 l 1,26,-1
 400 300 l 1,27,-1
 400 400 l 1,24,-1
200 600 m 1,28,-1
 300 600 l 1,29,-1
 300 500 l 1,30,-1
 200 500 l 1,31,-1
 200 600 l 1,28,-1
100 900 m 1,32,-1
 200 900 l 1,33,-1
 200 600 l 1,34,-1
 100 600 l 1,35,-1
 100 900 l 1,32,-1
EndSplineSet
Validated: 5
EndChar

StartChar: Y
Encoding: 89 89 60
Width: 700
GlyphClass: 1
Flags: W
LayerCount: 2
Fore
SplineSet
500 900 m 1,0,-1
 600 900 l 1,1,-1
 600 600 l 1,2,-1
 500 600 l 1,3,-1
 500 900 l 1,0,-1
400 600 m 1,4,-1
 500 600 l 1,5,-1
 500 500 l 1,6,-1
 400 500 l 1,7,-1
 400 600 l 1,4,-1
300 500 m 1,8,-1
 400 500 l 1,9,-1
 400 0 l 1,10,-1
 300 0 l 1,11,-1
 300 500 l 1,8,-1
200 600 m 1,12,-1
 300 600 l 1,13,-1
 300 500 l 1,14,-1
 200 500 l 1,15,-1
 200 600 l 1,12,-1
100 900 m 1,16,-1
 200 900 l 1,17,-1
 200 600 l 1,18,-1
 100 600 l 1,19,-1
 100 900 l 1,16,-1
EndSplineSet
Validated: 5
EndChar

StartChar: Z
Encoding: 90 90 61
Width: 700
GlyphClass: 1
Flags: W
LayerCount: 2
Fore
SplineSet
100 300 m 1,0,-1
 200 300 l 1,1,-1
 200 100 l 1,2,-1
 600 100 l 1,3,-1
 600 0 l 1,4,-1
 100 0 l 1,5,-1
 100 300 l 1,0,-1
200 300 m 1,6,-1
 200 400 l 1,7,-1
 300 400 l 1,8,-1
 300 300 l 1,9,-1
 200 300 l 1,6,-1
300 400 m 1,10,-1
 300 500 l 1,11,-1
 400 500 l 1,12,-1
 400 400 l 1,13,-1
 300 400 l 1,10,-1
400 500 m 1,14,-1
 400 600 l 1,15,-1
 500 600 l 1,16,-1
 500 500 l 1,17,-1
 400 500 l 1,14,-1
100 900 m 1,18,-1
 600 900 l 1,19,-1
 600 600 l 1,20,-1
 500 600 l 1,21,-1
 500 800 l 1,22,-1
 100 800 l 1,23,-1
 100 900 l 1,18,-1
EndSplineSet
Validated: 5
EndChar

StartChar: bracketleft
Encoding: 91 91 62
Width: 700
GlyphClass: 1
Flags: W
LayerCount: 2
Fore
SplineSet
300 900 m 1,0,-1
 600 900 l 1,1,-1
 600 800 l 1,2,-1
 400 800 l 1,3,-1
 400 100 l 1,4,-1
 600 100 l 1,5,-1
 600 0 l 1,6,-1
 300 0 l 1,7,-1
 300 900 l 1,0,-1
EndSplineSet
Validated: 1
EndChar

StartChar: backslash
Encoding: 92 92 63
Width: 500
GlyphClass: 1
Flags: W
LayerCount: 2
Fore
SplineSet
200 600 m 1,0,-1
 300 600 l 1,1,-1
 300 300 l 1,2,-1
 200 300 l 1,3,-1
 200 600 l 1,0,-1
300 300 m 1,4,-1
 400 300 l 1,5,-1
 400 0 l 1,6,-1
 300 0 l 1,7,-1
 300 300 l 1,4,-1
100 900 m 1,8,-1
 200 900 l 1,9,-1
 200 600 l 1,10,-1
 100 600 l 1,11,-1
 100 900 l 1,8,-1
EndSplineSet
Validated: 5
EndChar

StartChar: bracketright
Encoding: 93 93 64
Width: 700
GlyphClass: 1
Flags: W
LayerCount: 2
Fore
SplineSet
100 900 m 1,0,-1
 400 900 l 1,1,-1
 400 0 l 1,2,-1
 100 0 l 1,3,-1
 100 100 l 1,4,-1
 300 100 l 1,5,-1
 300 800 l 1,6,-1
 100 800 l 1,7,-1
 100 900 l 1,0,-1
EndSplineSet
Validated: 1
EndChar

StartChar: asciicircum
Encoding: 94 94 65
Width: 700
GlyphClass: 1
Flags: W
LayerCount: 2
Fore
SplineSet
100 700 m 1,0,-1
 200 700 l 1,1,-1
 200 600 l 1,2,-1
 100 600 l 1,3,-1
 100 700 l 1,0,-1
200 800 m 1,4,-1
 300 800 l 1,5,-1
 300 700 l 1,6,-1
 200 700 l 1,7,-1
 200 800 l 1,4,-1
300 900 m 1,8,-1
 400 900 l 1,9,-1
 400 800 l 1,10,-1
 300 800 l 1,11,-1
 300 900 l 1,8,-1
500 700 m 1,12,-1
 600 700 l 1,13,-1
 600 600 l 1,14,-1
 500 600 l 1,15,-1
 500 700 l 1,12,-1
400 800 m 1,16,-1
 500 800 l 1,17,-1
 500 700 l 1,18,-1
 400 700 l 1,19,-1
 400 800 l 1,16,-1
EndSplineSet
Validated: 5
EndChar

StartChar: underscore
Encoding: 95 95 66
Width: 500
GlyphClass: 1
Flags: W
LayerCount: 2
Fore
SplineSet
0 -100 m 1,0,-1
 500 -100 l 1,1,-1
 500 -200 l 1,2,-1
 0 -200 l 1,3,-1
 0 -100 l 1,0,-1
EndSplineSet
Validated: 1
EndChar

StartChar: grave
Encoding: 96 96 67
Width: 500
GlyphClass: 1
Flags: W
LayerCount: 2
Fore
SplineSet
100 900 m 1,0,-1
 200 900 l 1,1,-1
 200 800 l 1,2,-1
 100 800 l 1,3,-1
 100 900 l 1,0,-1
200 800 m 1,4,-1
 300 800 l 1,5,-1
 300 700 l 1,6,-1
 200 700 l 1,7,-1
 200 800 l 1,4,-1
EndSplineSet
Validated: 5
EndChar

StartChar: a
Encoding: 97 97 68
Width: 700
GlyphClass: 1
Flags: W
LayerCount: 2
Fore
SplineSet
100 600 m 1,0,-1
 200 600 l 1,1,-1
 200 500 l 1,2,-1
 100 500 l 1,3,-1
 100 600 l 1,0,-1
100 300 m 1,4,-1
 200 300 l 1,5,-1
 200 100 l 1,6,-1
 100 100 l 1,7,-1
 100 300 l 1,4,-1
500 600 m 1,8,-1
 600 600 l 1,9,-1
 600 0 l 1,10,-1
 200 0 l 1,11,-1
 200 100 l 1,12,-1
 500 100 l 1,13,-1
 500 300 l 1,14,-1
 200 300 l 1,15,-1
 200 400 l 1,16,-1
 500 400 l 1,17,-1
 500 600 l 1,8,-1
200 700 m 1,18,-1
 500 700 l 1,19,-1
 500 600 l 1,20,-1
 200 600 l 1,21,-1
 200 700 l 1,18,-1
EndSplineSet
Validated: 5
EndChar

StartChar: b
Encoding: 98 98 69
Width: 700
GlyphClass: 1
Flags: W
LayerCount: 2
Fore
SplineSet
500 600 m 1,0,-1
 600 600 l 1,1,-1
 600 100 l 1,2,-1
 500 100 l 1,3,-1
 500 600 l 1,0,-1
100 900 m 1,4,-1
 200 900 l 1,5,-1
 200 700 l 1,6,-1
 500 700 l 1,7,-1
 500 600 l 1,8,-1
 200 600 l 1,9,-1
 200 100 l 1,10,-1
 500 100 l 1,11,-1
 500 0 l 1,12,-1
 100 0 l 1,13,-1
 100 900 l 1,4,-1
EndSplineSet
Validated: 5
EndChar

StartChar: c
Encoding: 99 99 70
Width: 700
GlyphClass: 1
Flags: W
LayerCount: 2
Fore
SplineSet
500 200 m 1,0,-1
 600 200 l 1,1,-1
 600 100 l 1,2,-1
 500 100 l 1,3,-1
 500 200 l 1,0,-1
200 100 m 1,4,-1
 500 100 l 1,5,-1
 500 0 l 1,6,-1
 200 0 l 1,7,-1
 200 100 l 1,4,-1
100 600 m 1,8,-1
 200 600 l 1,9,-1
 200 100 l 1,10,-1
 100 100 l 1,11,-1
 100 600 l 1,8,-1
200 700 m 1,12,-1
 500 700 l 1,13,-1
 500 600 l 1,14,-1
 200 600 l 1,15,-1
 200 700 l 1,12,-1
500 600 m 1,16,-1
 600 600 l 1,17,-1
 600 500 l 1,18,-1
 500 500 l 1,19,-1
 500 600 l 1,16,-1
EndSplineSet
Validated: 5
EndChar

StartChar: d
Encoding: 100 100 71
Width: 700
GlyphClass: 1
Flags: W
LayerCount: 2
Fore
SplineSet
100 600 m 1,0,-1
 200 600 l 1,1,-1
 200 100 l 1,2,-1
 100 100 l 1,3,-1
 100 600 l 1,0,-1
500 900 m 1,4,-1
 600 900 l 1,5,-1
 600 0 l 1,6,-1
 200 0 l 1,7,-1
 200 100 l 1,8,-1
 500 100 l 1,9,-1
 500 600 l 1,10,-1
 200 600 l 1,11,-1
 200 700 l 1,12,-1
 500 700 l 1,13,-1
 500 900 l 1,4,-1
EndSplineSet
Validated: 5
EndChar

StartChar: e
Encoding: 101 101 72
Width: 700
GlyphClass: 1
Flags: W
LayerCount: 2
Fore
SplineSet
500 200 m 1,0,-1
 600 200 l 1,1,-1
 600 100 l 1,2,-1
 500 100 l 1,3,-1
 500 200 l 1,0,-1
200 100 m 1,4,-1
 500 100 l 1,5,-1
 500 0 l 1,6,-1
 200 0 l 1,7,-1
 200 100 l 1,4,-1
100 600 m 1,8,-1
 200 600 l 1,9,-1
 200 400 l 1,10,-1
 500 400 l 1,11,-1
 500 600 l 1,12,-1
 600 600 l 1,13,-1
 600 300 l 1,14,-1
 200 300 l 1,15,-1
 200 100 l 1,16,-1
 100 100 l 1,17,-1
 100 600 l 1,8,-1
200 700 m 1,18,-1
 500 700 l 1,19,-1
 500 600 l 1,20,-1
 200 600 l 1,21,-1
 200 700 l 1,18,-1
EndSplineSet
Validated: 5
EndChar

StartChar: f
Encoding: 102 102 73
Width: 600
GlyphClass: 1
Flags: W
LayerCount: 2
Fore
SplineSet
200 800 m 1,0,-1
 300 800 l 1,1,-1
 300 600 l 1,2,-1
 500 600 l 1,3,-1
 500 500 l 1,4,-1
 300 500 l 1,5,-1
 300 0 l 1,6,-1
 200 0 l 1,7,-1
 200 500 l 1,8,-1
 100 500 l 1,9,-1
 100 600 l 1,10,-1
 200 600 l 1,11,-1
 200 800 l 1,0,-1
300 900 m 1,12,-1
 500 900 l 1,13,-1
 500 800 l 1,14,-1
 300 800 l 1,15,-1
 300 900 l 1,12,-1
EndSplineSet
Validated: 5
EndChar

StartChar: g
Encoding: 103 103 74
Width: 700
GlyphClass: 1
Flags: W
LayerCount: 2
Fore
SplineSet
100 0 m 1,0,-1
 200 0 l 1,1,-1
 200 -100 l 1,2,-1
 100 -100 l 1,3,-1
 100 0 l 1,0,-1
200 -100 m 1,4,-1
 500 -100 l 1,5,-1
 500 -200 l 1,6,-1
 200 -200 l 1,7,-1
 200 -100 l 1,4,-1
200 700 m 1,8,-1
 600 700 l 1,9,-1
 600 -100 l 1,10,-1
 500 -100 l 1,11,-1
 500 100 l 1,12,-1
 200 100 l 1,13,-1
 200 200 l 1,14,-1
 500 200 l 1,15,-1
 500 600 l 1,16,-1
 200 600 l 1,17,-1
 200 700 l 1,8,-1
100 600 m 1,18,-1
 200 600 l 1,19,-1
 200 200 l 1,20,-1
 100 200 l 1,21,-1
 100 600 l 1,18,-1
EndSplineSet
Validated: 5
EndChar

StartChar: h
Encoding: 104 104 75
Width: 700
GlyphClass: 1
Flags: W
LayerCount: 2
Fore
SplineSet
500 600 m 1,0,-1
 600 600 l 1,1,-1
 600 0 l 1,2,-1
 500 0 l 1,3,-1
 500 600 l 1,0,-1
100 900 m 1,4,-1
 200 900 l 1,5,-1
 200 700 l 1,6,-1
 500 700 l 1,7,-1
 500 600 l 1,8,-1
 200 600 l 1,9,-1
 200 0 l 1,10,-1
 100 0 l 1,11,-1
 100 900 l 1,4,-1
EndSplineSet
Validated: 5
EndChar

StartChar: i
Encoding: 105 105 76
Width: 500
GlyphClass: 1
Flags: W
LayerCount: 2
Fore
SplineSet
200 700 m 1,0,-1
 300 700 l 1,1,-1
 300 0 l 1,2,-1
 200 0 l 1,3,-1
 200 700 l 1,0,-1
200 900 m 1,4,-1
 300 900 l 1,5,-1
 300 800 l 1,6,-1
 200 800 l 1,7,-1
 200 900 l 1,4,-1
EndSplineSet
Validated: 1
EndChar

StartChar: j
Encoding: 106 106 77
Width: 700
GlyphClass: 1
Flags: W
LayerCount: 2
Fore
SplineSet
500 900 m 1,0,-1
 600 900 l 1,1,-1
 600 800 l 1,2,-1
 500 800 l 1,3,-1
 500 900 l 1,0,-1
500 700 m 1,4,-1
 600 700 l 1,5,-1
 600 -100 l 1,6,-1
 500 -100 l 1,7,-1
 500 700 l 1,4,-1
200 -100 m 1,8,-1
 500 -100 l 1,9,-1
 500 -200 l 1,10,-1
 200 -200 l 1,11,-1
 200 -100 l 1,8,-1
100 0 m 1,12,-1
 200 0 l 1,13,-1
 200 -100 l 1,14,-1
 100 -100 l 1,15,-1
 100 0 l 1,12,-1
EndSplineSet
Validated: 5
EndChar

StartChar: k
Encoding: 107 107 78
Width: 700
GlyphClass: 1
Flags: W
LayerCount: 2
Fore
SplineSet
500 100 m 1,0,-1
 600 100 l 1,1,-1
 600 0 l 1,2,-1
 500 0 l 1,3,-1
 500 100 l 1,0,-1
400 200 m 1,4,-1
 500 200 l 1,5,-1
 500 100 l 1,6,-1
 400 100 l 1,7,-1
 400 200 l 1,4,-1
300 300 m 1,8,-1
 400 300 l 1,9,-1
 400 200 l 1,10,-1
 300 200 l 1,11,-1
 300 300 l 1,8,-1
100 900 m 1,12,-1
 200 900 l 1,13,-1
 200 400 l 1,14,-1
 300 400 l 1,15,-1
 300 300 l 1,16,-1
 200 300 l 1,17,-1
 200 0 l 1,18,-1
 100 0 l 1,19,-1
 100 900 l 1,12,-1
300 500 m 1,20,-1
 400 500 l 1,21,-1
 400 400 l 1,22,-1
 300 400 l 1,23,-1
 300 500 l 1,20,-1
400 600 m 1,24,-1
 500 600 l 1,25,-1
 500 500 l 1,26,-1
 400 500 l 1,27,-1
 400 600 l 1,24,-1
500 700 m 1,28,-1
 600 700 l 1,29,-1
 600 600 l 1,30,-1
 500 600 l 1,31,-1
 500 700 l 1,28,-1
EndSplineSet
Validated: 5
EndChar

StartChar: l
Encoding: 108 108 79
Width: 500
GlyphClass: 1
Flags: W
LayerCount: 2
Fore
SplineSet
200 900 m 1,0,-1
 300 900 l 1,1,-1
 300 100 l 1,2,-1
 200 100 l 1,3,-1
 200 900 l 1,0,-1
300 100 m 1,4,-1
 400 100 l 1,5,-1
 400 0 l 1,6,-1
 300 0 l 1,7,-1
 300 100 l 1,4,-1
EndSplineSet
Validated: 5
EndChar

StartChar: m
Encoding: 109 109 80
Width: 900
GlyphClass: 1
Flags: W
LayerCount: 2
Fore
SplineSet
700 600 m 1,0,-1
 800 600 l 1,1,-1
 800 0 l 1,2,-1
 700 0 l 1,3,-1
 700 600 l 1,0,-1
500 700 m 1,4,-1
 700 700 l 1,5,-1
 700 600 l 1,6,-1
 500 600 l 1,7,-1
 500 700 l 1,4,-1
400 600 m 1,8,-1
 500 600 l 1,9,-1
 500 200 l 1,10,-1
 400 200 l 1,11,-1
 400 600 l 1,8,-1
100 700 m 1,12,-1
 400 700 l 1,13,-1
 400 600 l 1,14,-1
 200 600 l 1,15,-1
 200 0 l 1,16,-1
 100 0 l 1,17,-1
 100 700 l 1,12,-1
EndSplineSet
Validated: 5
EndChar

StartChar: n
Encoding: 110 110 81
Width: 700
GlyphClass: 1
Flags: W
LayerCount: 2
Fore
SplineSet
500 600 m 1,0,-1
 600 600 l 1,1,-1
 600 0 l 1,2,-1
 500 0 l 1,3,-1
 500 600 l 1,0,-1
100 700 m 1,4,-1
 500 700 l 1,5,-1
 500 600 l 1,6,-1
 200 600 l 1,7,-1
 200 0 l 1,8,-1
 100 0 l 1,9,-1
 100 700 l 1,4,-1
EndSplineSet
Validated: 5
EndChar

StartChar: o
Encoding: 111 111 82
Width: 700
GlyphClass: 1
Flags: W
LayerCount: 2
Fore
SplineSet
500 600 m 1,0,-1
 600 600 l 1,1,-1
 600 100 l 1,2,-1
 500 100 l 1,3,-1
 500 600 l 1,0,-1
200 100 m 1,4,-1
 500 100 l 1,5,-1
 500 0 l 1,6,-1
 200 0 l 1,7,-1
 200 100 l 1,4,-1
100 600 m 1,8,-1
 200 600 l 1,9,-1
 200 100 l 1,10,-1
 100 100 l 1,11,-1
 100 600 l 1,8,-1
200 700 m 1,12,-1
 500 700 l 1,13,-1
 500 600 l 1,14,-1
 200 600 l 1,15,-1
 200 700 l 1,12,-1
EndSplineSet
Validated: 5
EndChar

StartChar: p
Encoding: 112 112 83
Width: 700
GlyphClass: 1
Flags: W
LayerCount: 2
Fore
SplineSet
500 600 m 1,0,-1
 600 600 l 1,1,-1
 600 100 l 1,2,-1
 500 100 l 1,3,-1
 500 600 l 1,0,-1
100 700 m 1,4,-1
 500 700 l 1,5,-1
 500 600 l 1,6,-1
 200 600 l 1,7,-1
 200 100 l 1,8,-1
 500 100 l 1,9,-1
 500 0 l 1,10,-1
 200 0 l 1,11,-1
 200 -200 l 1,12,-1
 100 -200 l 1,13,-1
 100 700 l 1,4,-1
EndSplineSet
Validated: 5
EndChar

StartChar: q
Encoding: 113 113 84
Width: 700
GlyphClass: 1
Flags: W
LayerCount: 2
Fore
SplineSet
200 700 m 1,0,-1
 600 700 l 1,1,-1
 600 -200 l 1,2,-1
 500 -200 l 1,3,-1
 500 0 l 1,4,-1
 200 0 l 1,5,-1
 200 100 l 1,6,-1
 500 100 l 1,7,-1
 500 600 l 1,8,-1
 200 600 l 1,9,-1
 200 700 l 1,0,-1
100 600 m 1,10,-1
 200 600 l 1,11,-1
 200 100 l 1,12,-1
 100 100 l 1,13,-1
 100 600 l 1,10,-1
EndSplineSet
Validated: 5
EndChar

StartChar: r
Encoding: 114 114 85
Width: 700
GlyphClass: 1
Flags: W
LayerCount: 2
Fore
SplineSet
400 700 m 1,0,-1
 600 700 l 1,1,-1
 600 600 l 1,2,-1
 400 600 l 1,3,-1
 400 700 l 1,0,-1
300 600 m 1,4,-1
 400 600 l 1,5,-1
 400 500 l 1,6,-1
 300 500 l 1,7,-1
 300 600 l 1,4,-1
100 700 m 1,8,-1
 200 700 l 1,9,-1
 200 500 l 1,10,-1
 300 500 l 1,11,-1
 300 400 l 1,12,-1
 200 400 l 1,13,-1
 200 0 l 1,14,-1
 100 0 l 1,15,-1
 100 700 l 1,8,-1
EndSplineSet
Validated: 5
EndChar

StartChar: s
Encoding: 115 115 86
Width: 700
GlyphClass: 1
Flags: W
LayerCount: 2
Fore
SplineSet
100 600 m 1,0,-1
 200 600 l 1,1,-1
 200 400 l 1,2,-1
 100 400 l 1,3,-1
 100 600 l 1,0,-1
500 300 m 1,4,-1
 600 300 l 1,5,-1
 600 100 l 1,6,-1
 500 100 l 1,7,-1
 500 300 l 1,4,-1
200 100 m 1,8,-1
 500 100 l 1,9,-1
 500 0 l 1,10,-1
 200 0 l 1,11,-1
 200 100 l 1,8,-1
100 200 m 1,12,-1
 200 200 l 1,13,-1
 200 100 l 1,14,-1
 100 100 l 1,15,-1
 100 200 l 1,12,-1
200 400 m 1,16,-1
 500 400 l 1,17,-1
 500 300 l 1,18,-1
 200 300 l 1,19,-1
 200 400 l 1,16,-1
500 600 m 1,20,-1
 600 600 l 1,21,-1
 600 500 l 1,22,-1
 500 500 l 1,23,-1
 500 600 l 1,20,-1
200 700 m 1,24,-1
 500 700 l 1,25,-1
 500 600 l 1,26,-1
 200 600 l 1,27,-1
 200 700 l 1,24,-1
EndSplineSet
Validated: 5
EndChar

StartChar: t
Encoding: 116 116 87
Width: 600
GlyphClass: 1
Flags: W
LayerCount: 2
Fore
SplineSet
200 800 m 1,0,-1
 300 800 l 1,1,-1
 300 700 l 1,2,-1
 500 700 l 1,3,-1
 500 600 l 1,4,-1
 300 600 l 1,5,-1
 300 100 l 1,6,-1
 200 100 l 1,7,-1
 200 600 l 1,8,-1
 100 600 l 1,9,-1
 100 700 l 1,10,-1
 200 700 l 1,11,-1
 200 800 l 1,0,-1
300 100 m 1,12,-1
 500 100 l 1,13,-1
 500 0 l 1,14,-1
 300 0 l 1,15,-1
 300 100 l 1,12,-1
EndSplineSet
Validated: 5
EndChar

StartChar: u
Encoding: 117 117 88
Width: 700
GlyphClass: 1
Flags: W
LayerCount: 2
Fore
SplineSet
500 700 m 1,0,-1
 600 700 l 1,1,-1
 600 100 l 1,2,-1
 500 100 l 1,3,-1
 500 700 l 1,0,-1
200 100 m 1,4,-1
 500 100 l 1,5,-1
 500 0 l 1,6,-1
 200 0 l 1,7,-1
 200 100 l 1,4,-1
100 700 m 1,8,-1
 200 700 l 1,9,-1
 200 100 l 1,10,-1
 100 100 l 1,11,-1
 100 700 l 1,8,-1
EndSplineSet
Validated: 5
EndChar

StartChar: v
Encoding: 118 118 89
Width: 700
GlyphClass: 1
Flags: W
LayerCount: 2
Fore
SplineSet
500 700 m 1,0,-1
 600 700 l 1,1,-1
 600 200 l 1,2,-1
 500 200 l 1,3,-1
 500 700 l 1,0,-1
400 200 m 1,4,-1
 500 200 l 1,5,-1
 500 100 l 1,6,-1
 400 100 l 1,7,-1
 400 200 l 1,4,-1
300 100 m 1,8,-1
 400 100 l 1,9,-1
 400 0 l 1,10,-1
 300 0 l 1,11,-1
 300 100 l 1,8,-1
200 200 m 1,12,-1
 300 200 l 1,13,-1
 300 100 l 1,14,-1
 200 100 l 1,15,-1
 200 200 l 1,12,-1
100 700 m 1,16,-1
 200 700 l 1,17,-1
 200 200 l 1,18,-1
 100 200 l 1,19,-1
 100 700 l 1,16,-1
EndSplineSet
Validated: 5
EndChar

StartChar: w
Encoding: 119 119 90
Width: 900
GlyphClass: 1
Flags: W
LayerCount: 2
Fore
SplineSet
700 700 m 1,0,-1
 800 700 l 1,1,-1
 800 100 l 1,2,-1
 700 100 l 1,3,-1
 700 700 l 1,0,-1
500 100 m 1,4,-1
 700 100 l 1,5,-1
 700 0 l 1,6,-1
 500 0 l 1,7,-1
 500 100 l 1,4,-1
400 500 m 1,8,-1
 500 500 l 1,9,-1
 500 100 l 1,10,-1
 400 100 l 1,11,-1
 400 500 l 1,8,-1
200 100 m 1,12,-1
 400 100 l 1,13,-1
 400 0 l 1,14,-1
 200 0 l 1,15,-1
 200 100 l 1,12,-1
100 700 m 1,16,-1
 200 700 l 1,17,-1
 200 100 l 1,18,-1
 100 100 l 1,19,-1
 100 700 l 1,16,-1
EndSplineSet
Validated: 5
EndChar

StartChar: x
Encoding: 120 120 91
Width: 700
GlyphClass: 1
Flags: W
LayerCount: 2
Fore
SplineSet
100 200 m 1,0,-1
 200 200 l 1,1,-1
 200 0 l 1,2,-1
 100 0 l 1,3,-1
 100 200 l 1,0,-1
200 300 m 1,4,-1
 300 300 l 1,5,-1
 300 200 l 1,6,-1
 200 200 l 1,7,-1
 200 300 l 1,4,-1
300 400 m 1,8,-1
 400 400 l 1,9,-1
 400 300 l 1,10,-1
 300 300 l 1,11,-1
 300 400 l 1,8,-1
400 500 m 1,12,-1
 500 500 l 1,13,-1
 500 400 l 1,14,-1
 400 400 l 1,15,-1
 400 500 l 1,12,-1
500 700 m 1,16,-1
 600 700 l 1,17,-1
 600 500 l 1,18,-1
 500 500 l 1,19,-1
 500 700 l 1,16,-1
500 200 m 1,20,-1
 600 200 l 1,21,-1
 600 0 l 1,22,-1
 500 0 l 1,23,-1
 500 200 l 1,20,-1
400 300 m 1,24,-1
 500 300 l 1,25,-1
 500 200 l 1,26,-1
 400 200 l 1,27,-1
 400 300 l 1,24,-1
200 500 m 1,28,-1
 300 500 l 1,29,-1
 300 400 l 1,30,-1
 200 400 l 1,31,-1
 200 500 l 1,28,-1
100 700 m 1,32,-1
 200 700 l 1,33,-1
 200 500 l 1,34,-1
 100 500 l 1,35,-1
 100 700 l 1,32,-1
EndSplineSet
Validated: 5
EndChar

StartChar: y
Encoding: 121 121 92
Width: 700
GlyphClass: 1
Flags: W
LayerCount: 2
Fore
SplineSet
100 0 m 1,0,-1
 200 0 l 1,1,-1
 200 -100 l 1,2,-1
 100 -100 l 1,3,-1
 100 0 l 1,0,-1
200 -100 m 1,4,-1
 500 -100 l 1,5,-1
 500 -200 l 1,6,-1
 200 -200 l 1,7,-1
 200 -100 l 1,4,-1
500 700 m 1,8,-1
 600 700 l 1,9,-1
 600 -100 l 1,10,-1
 500 -100 l 1,11,-1
 500 100 l 1,12,-1
 200 100 l 1,13,-1
 200 200 l 1,14,-1
 500 200 l 1,15,-1
 500 700 l 1,8,-1
100 700 m 1,16,-1
 200 700 l 1,17,-1
 200 200 l 1,18,-1
 100 200 l 1,19,-1
 100 700 l 1,16,-1
EndSplineSet
Validated: 5
EndChar

StartChar: z
Encoding: 122 122 93
Width: 700
GlyphClass: 1
Flags: W
LayerCount: 2
Fore
SplineSet
100 200 m 1,0,-1
 200 200 l 1,1,-1
 200 100 l 1,2,-1
 600 100 l 1,3,-1
 600 0 l 1,4,-1
 100 0 l 1,5,-1
 100 200 l 1,0,-1
200 200 m 1,6,-1
 200 300 l 1,7,-1
 300 300 l 1,8,-1
 300 200 l 1,9,-1
 200 200 l 1,6,-1
300 300 m 1,10,-1
 300 400 l 1,11,-1
 400 400 l 1,12,-1
 400 300 l 1,13,-1
 300 300 l 1,10,-1
400 400 m 1,14,-1
 400 500 l 1,15,-1
 500 500 l 1,16,-1
 500 400 l 1,17,-1
 400 400 l 1,14,-1
100 700 m 1,18,-1
 600 700 l 1,19,-1
 600 500 l 1,20,-1
 500 500 l 1,21,-1
 500 600 l 1,22,-1
 100 600 l 1,23,-1
 100 700 l 1,18,-1
EndSplineSet
Validated: 5
EndChar

StartChar: braceleft
Encoding: 123 123 94
Width: 700
GlyphClass: 1
Flags: W
LayerCount: 2
Fore
SplineSet
200 500 m 1,0,-1
 300 500 l 1,1,-1
 300 400 l 1,2,-1
 200 400 l 1,3,-1
 200 500 l 1,0,-1
300 800 m 1,4,-1
 400 800 l 1,5,-1
 400 500 l 1,6,-1
 300 500 l 1,7,-1
 300 800 l 1,4,-1
400 900 m 1,8,-1
 600 900 l 1,9,-1
 600 800 l 1,10,-1
 400 800 l 1,11,-1
 400 900 l 1,8,-1
400 100 m 1,12,-1
 600 100 l 1,13,-1
 600 0 l 1,14,-1
 400 0 l 1,15,-1
 400 100 l 1,12,-1
300 400 m 1,16,-1
 400 400 l 1,17,-1
 400 100 l 1,18,-1
 300 100 l 1,19,-1
 300 400 l 1,16,-1
EndSplineSet
Validated: 5
EndChar

StartChar: bar
Encoding: 124 124 95
Width: 500
GlyphClass: 1
Flags: W
LayerCount: 2
Fore
SplineSet
200 900 m 1,0,-1
 300 900 l 1,1,-1
 300 0 l 1,2,-1
 200 0 l 1,3,-1
 200 900 l 1,0,-1
EndSplineSet
Validated: 1
EndChar

StartChar: braceright
Encoding: 125 125 96
Width: 700
GlyphClass: 1
Flags: W
LayerCount: 2
Fore
SplineSet
100 100 m 1,0,-1
 300 100 l 1,1,-1
 300 0 l 1,2,-1
 100 0 l 1,3,-1
 100 100 l 1,0,-1
300 400 m 1,4,-1
 400 400 l 1,5,-1
 400 100 l 1,6,-1
 300 100 l 1,7,-1
 300 400 l 1,4,-1
400 500 m 1,8,-1
 500 500 l 1,9,-1
 500 400 l 1,10,-1
 400 400 l 1,11,-1
 400 500 l 1,8,-1
300 800 m 1,12,-1
 400 800 l 1,13,-1
 400 500 l 1,14,-1
 300 500 l 1,15,-1
 300 800 l 1,12,-1
100 900 m 1,16,-1
 300 900 l 1,17,-1
 300 800 l 1,18,-1
 100 800 l 1,19,-1
 100 900 l 1,16,-1
EndSplineSet
Validated: 5
EndChar

StartChar: asciitilde
Encoding: 126 126 97
Width: 800
GlyphClass: 1
Flags: W
LayerCount: 2
Fore
SplineSet
400 800 m 1,0,-1
 600 800 l 1,1,-1
 600 700 l 1,2,-1
 400 700 l 1,3,-1
 400 800 l 1,0,-1
600 900 m 1,4,-1
 700 900 l 1,5,-1
 700 800 l 1,6,-1
 600 800 l 1,7,-1
 600 900 l 1,4,-1
100 800 m 1,8,-1
 200 800 l 1,9,-1
 200 700 l 1,10,-1
 100 700 l 1,11,-1
 100 800 l 1,8,-1
200 900 m 1,12,-1
 400 900 l 1,13,-1
 400 800 l 1,14,-1
 200 800 l 1,15,-1
 200 900 l 1,12,-1
EndSplineSet
Validated: 5
EndChar

StartChar: cent
Encoding: 162 162 100
Width: 700
GlyphClass: 1
Flags: W
LayerCount: 2
Fore
SplineSet
500 200 m 1,0,-1
 600 200 l 1,1,-1
 600 100 l 1,2,-1
 500 100 l 1,3,-1
 500 200 l 1,0,-1
300 900 m 1,4,-1
 400 900 l 1,5,-1
 400 700 l 1,6,-1
 500 700 l 1,7,-1
 500 600 l 1,8,-1
 400 600 l 1,9,-1
 400 100 l 1,10,-1
 500 100 l 1,11,-1
 500 0 l 1,12,-1
 400 0 l 1,13,-1
 400 -200 l 1,14,-1
 300 -200 l 1,15,-1
 300 0 l 1,16,-1
 200 0 l 1,17,-1
 200 100 l 1,18,-1
 300 100 l 1,19,-1
 300 600 l 1,20,-1
 200 600 l 1,21,-1
 200 700 l 1,22,-1
 300 700 l 1,23,-1
 300 900 l 1,4,-1
100 600 m 1,24,-1
 200 600 l 1,25,-1
 200 100 l 1,26,-1
 100 100 l 1,27,-1
 100 600 l 1,24,-1
500 600 m 1,28,-1
 600 600 l 1,29,-1
 600 500 l 1,30,-1
 500 500 l 1,31,-1
 500 600 l 1,28,-1
EndSplineSet
Validated: 5
EndChar

StartChar: sterling
Encoding: 163 163 101
Width: 800
GlyphClass: 1
Flags: W
LayerCount: 2
Fore
SplineSet
600 200 m 1,0,-1
 700 200 l 1,1,-1
 700 100 l 1,2,-1
 600 100 l 1,3,-1
 600 200 l 1,0,-1
200 800 m 1,4,-1
 300 800 l 1,5,-1
 300 500 l 1,6,-1
 500 500 l 1,7,-1
 500 400 l 1,8,-1
 300 400 l 1,9,-1
 300 100 l 1,10,-1
 600 100 l 1,11,-1
 600 0 l 1,12,-1
 100 0 l 1,13,-1
 100 100 l 1,14,-1
 200 100 l 1,15,-1
 200 400 l 1,16,-1
 100 400 l 1,17,-1
 100 500 l 1,18,-1
 200 500 l 1,19,-1
 200 800 l 1,4,-1
300 900 m 1,20,-1
 600 900 l 1,21,-1
 600 800 l 1,22,-1
 300 800 l 1,23,-1
 300 900 l 1,20,-1
600 800 m 1,24,-1
 700 800 l 1,25,-1
 700 700 l 1,26,-1
 600 700 l 1,27,-1
 600 800 l 1,24,-1
EndSplineSet
Validated: 5
EndChar

StartChar: yen
Encoding: 165 165 102
Width: 700
GlyphClass: 1
Flags: W
LayerCount: 2
Fore
SplineSet
100 900 m 1,0,-1
 200 900 l 1,1,-1
 200 600 l 1,2,-1
 100 600 l 1,3,-1
 100 900 l 1,0,-1
200 600 m 1,4,-1
 300 600 l 1,5,-1
 300 500 l 1,6,-1
 200 500 l 1,7,-1
 200 600 l 1,4,-1
300 500 m 1,8,-1
 400 500 l 1,9,-1
 400 400 l 1,10,-1
 600 400 l 1,11,-1
 600 300 l 1,12,-1
 400 300 l 1,13,-1
 400 200 l 1,14,-1
 600 200 l 1,15,-1
 600 100 l 1,16,-1
 400 100 l 1,17,-1
 400 0 l 1,18,-1
 300 0 l 1,19,-1
 300 100 l 1,20,-1
 100 100 l 1,21,-1
 100 200 l 1,22,-1
 300 200 l 1,23,-1
 300 300 l 1,24,-1
 100 300 l 1,25,-1
 100 400 l 1,26,-1
 300 400 l 1,27,-1
 300 500 l 1,8,-1
400 600 m 1,28,-1
 500 600 l 1,29,-1
 500 500 l 1,30,-1
 400 500 l 1,31,-1
 400 600 l 1,28,-1
500 900 m 1,32,-1
 600 900 l 1,33,-1
 600 600 l 1,34,-1
 500 600 l 1,35,-1
 500 900 l 1,32,-1
EndSplineSet
Validated: 5
EndChar

StartChar: brokenbar
Encoding: 166 166 103
Width: 500
GlyphClass: 1
Flags: W
LayerCount: 2
Fore
SplineSet
200 400 m 1,0,-1
 300 400 l 1,1,-1
 300 0 l 1,2,-1
 200 0 l 1,3,-1
 200 400 l 1,0,-1
200 900 m 1,4,-1
 300 900 l 1,5,-1
 300 500 l 1,6,-1
 200 500 l 1,7,-1
 200 900 l 1,4,-1
EndSplineSet
Validated: 1
EndChar

StartChar: dieresis
Encoding: 168 168 104
Width: 700
GlyphClass: 1
Flags: W
LayerCount: 2
Fore
SplineSet
200 900 m 1,0,-1
 300 900 l 1,1,-1
 300 800 l 1,2,-1
 200 800 l 1,3,-1
 200 900 l 1,0,-1
400 900 m 1,4,-1
 500 900 l 1,5,-1
 500 800 l 1,6,-1
 400 800 l 1,7,-1
 400 900 l 1,4,-1
EndSplineSet
Validated: 1
EndChar

StartChar: copyright
Encoding: 169 169 105
Width: 900
GlyphClass: 1
Flags: W
LayerCount: 2
Fore
SplineSet
400 300 m 1,0,-1
 600 300 l 1,1,-1
 600 200 l 1,2,-1
 400 200 l 1,3,-1
 400 300 l 1,0,-1
300 600 m 1,4,-1
 400 600 l 1,5,-1
 400 300 l 1,6,-1
 300 300 l 1,7,-1
 300 600 l 1,4,-1
400 700 m 1,8,-1
 600 700 l 1,9,-1
 600 600 l 1,10,-1
 400 600 l 1,11,-1
 400 700 l 1,8,-1
700 800 m 1,12,-1
 800 800 l 1,13,-1
 800 100 l 1,14,-1
 700 100 l 1,15,-1
 700 800 l 1,12,-1
200 100 m 1,16,-1
 700 100 l 1,17,-1
 700 0 l 1,18,-1
 200 0 l 1,19,-1
 200 100 l 1,16,-1
100 800 m 1,20,-1
 200 800 l 1,21,-1
 200 100 l 1,22,-1
 100 100 l 1,23,-1
 100 800 l 1,20,-1
200 900 m 1,24,-1
 700 900 l 1,25,-1
 700 800 l 1,26,-1
 200 800 l 1,27,-1
 200 900 l 1,24,-1
EndSplineSet
Validated: 5
EndChar

StartChar: logicalnot
Encoding: 172 172 107
Width: 700
GlyphClass: 1
Flags: W
LayerCount: 2
Fore
SplineSet
100 500 m 1,0,-1
 600 500 l 1,1,-1
 600 200 l 1,2,-1
 500 200 l 1,3,-1
 500 400 l 1,4,-1
 100 400 l 1,5,-1
 100 500 l 1,0,-1
EndSplineSet
Validated: 1
EndChar

StartChar: registered
Encoding: 174 174 108
Width: 900
GlyphClass: 1
Flags: W
LayerCount: 2
Fore
SplineSet
500 300 m 1,0,-1
 600 300 l 1,1,-1
 600 200 l 1,2,-1
 500 200 l 1,3,-1
 500 300 l 1,0,-1
500 600 m 1,4,-1
 600 600 l 1,5,-1
 600 400 l 1,6,-1
 500 400 l 1,7,-1
 500 600 l 1,4,-1
700 800 m 1,8,-1
 800 800 l 1,9,-1
 800 100 l 1,10,-1
 700 100 l 1,11,-1
 700 800 l 1,8,-1
200 100 m 1,12,-1
 700 100 l 1,13,-1
 700 0 l 1,14,-1
 200 0 l 1,15,-1
 200 100 l 1,12,-1
100 800 m 1,16,-1
 200 800 l 1,17,-1
 200 100 l 1,18,-1
 100 100 l 1,19,-1
 100 800 l 1,16,-1
200 900 m 1,20,-1
 700 900 l 1,21,-1
 700 800 l 1,22,-1
 200 800 l 1,23,-1
 200 900 l 1,20,-1
300 700 m 1,24,-1
 500 700 l 1,25,-1
 500 600 l 1,26,-1
 400 600 l 1,27,-1
 400 400 l 1,28,-1
 500 400 l 1,29,-1
 500 300 l 1,30,-1
 400 300 l 1,31,-1
 400 200 l 1,32,-1
 300 200 l 1,33,-1
 300 700 l 1,24,-1
EndSplineSet
Validated: 5
EndChar

StartChar: degree
Encoding: 176 176 109
Width: 600
GlyphClass: 1
Flags: W
LayerCount: 2
Fore
SplineSet
400 800 m 1,0,-1
 500 800 l 1,1,-1
 500 600 l 1,2,-1
 400 600 l 1,3,-1
 400 800 l 1,0,-1
200 600 m 1,4,-1
 400 600 l 1,5,-1
 400 500 l 1,6,-1
 200 500 l 1,7,-1
 200 600 l 1,4,-1
100 800 m 1,8,-1
 200 800 l 1,9,-1
 200 600 l 1,10,-1
 100 600 l 1,11,-1
 100 800 l 1,8,-1
200 900 m 1,12,-1
 400 900 l 1,13,-1
 400 800 l 1,14,-1
 200 800 l 1,15,-1
 200 900 l 1,12,-1
EndSplineSet
Validated: 5
EndChar

StartChar: plusminus
Encoding: 177 177 110
Width: 700
GlyphClass: 1
Flags: W
LayerCount: 2
Fore
SplineSet
100 100 m 1,0,-1
 600 100 l 1,1,-1
 600 0 l 1,2,-1
 100 0 l 1,3,-1
 100 100 l 1,0,-1
300 700 m 1,4,-1
 400 700 l 1,5,-1
 400 500 l 1,6,-1
 600 500 l 1,7,-1
 600 400 l 1,8,-1
 400 400 l 1,9,-1
 400 200 l 1,10,-1
 300 200 l 1,11,-1
 300 400 l 1,12,-1
 100 400 l 1,13,-1
 100 500 l 1,14,-1
 300 500 l 1,15,-1
 300 700 l 1,4,-1
EndSplineSet
Validated: 1
EndChar

StartChar: acute
Encoding: 180 180 111
Width: 500
GlyphClass: 1
Flags: W
LayerCount: 2
Fore
SplineSet
200 800 m 1,0,-1
 300 800 l 1,1,-1
 300 700 l 1,2,-1
 200 700 l 1,3,-1
 200 800 l 1,0,-1
300 900 m 1,4,-1
 400 900 l 1,5,-1
 400 800 l 1,6,-1
 300 800 l 1,7,-1
 300 900 l 1,4,-1
EndSplineSet
Validated: 5
EndChar

StartChar: mu
Encoding: 181 181 112
Width: 700
GlyphClass: 1
Flags: W
LayerCount: 2
Fore
SplineSet
500 700 m 1,0,-1
 600 700 l 1,1,-1
 600 100 l 1,2,-1
 500 100 l 1,3,-1
 500 700 l 1,0,-1
100 700 m 1,4,-1
 200 700 l 1,5,-1
 200 100 l 1,6,-1
 500 100 l 1,7,-1
 500 0 l 1,8,-1
 200 0 l 1,9,-1
 200 -200 l 1,10,-1
 100 -200 l 1,11,-1
 100 700 l 1,4,-1
EndSplineSet
Validated: 5
EndChar

StartChar: paragraph
Encoding: 182 182 113
Width: 900
GlyphClass: 1
Flags: W
LayerCount: 2
Fore
SplineSet
200 900 m 1,0,-1
 800 900 l 1,1,-1
 800 0 l 1,2,-1
 700 0 l 1,3,-1
 700 800 l 1,4,-1
 500 800 l 1,5,-1
 500 0 l 1,6,-1
 400 0 l 1,7,-1
 400 400 l 1,8,-1
 200 400 l 1,9,-1
 200 500 l 1,10,-1
 100 500 l 1,11,-1
 100 800 l 1,12,-1
 200 800 l 1,13,-1
 200 900 l 1,0,-1
EndSplineSet
Validated: 1
EndChar

StartChar: cedilla
Encoding: 184 184 115
Width: 500
GlyphClass: 1
Flags: W
LayerCount: 2
Fore
SplineSet
300 -100 m 1,0,-1
 400 -100 l 1,1,-1
 400 -200 l 1,2,-1
 300 -200 l 1,3,-1
 300 -100 l 1,0,-1
100 -200 m 1,4,-1
 300 -200 l 1,5,-1
 300 -300 l 1,6,-1
 100 -300 l 1,7,-1
 100 -200 l 1,4,-1
200 0 m 1,8,-1
 300 0 l 1,9,-1
 300 -100 l 1,10,-1
 200 -100 l 1,11,-1
 200 0 l 1,8,-1
EndSplineSet
Validated: 5
EndChar

StartChar: AE
Encoding: 198 198 124
Width: 1100
GlyphClass: 1
Flags: W
LayerCount: 2
Fore
SplineSet
200 900 m 1,0,-1
 1000 900 l 1,1,-1
 1000 800 l 1,2,-1
 600 800 l 1,3,-1
 600 500 l 1,4,-1
 800 500 l 1,5,-1
 800 400 l 1,6,-1
 600 400 l 1,7,-1
 600 100 l 1,8,-1
 1000 100 l 1,9,-1
 1000 0 l 1,10,-1
 500 0 l 1,11,-1
 500 300 l 1,12,-1
 200 300 l 1,13,-1
 200 0 l 1,14,-1
 100 0 l 1,15,-1
 100 800 l 1,16,-1
 200 800 l 1,17,-1
 200 400 l 1,18,-1
 500 400 l 1,19,-1
 500 800 l 1,20,-1
 200 800 l 1,21,-1
 200 900 l 1,0,-1
EndSplineSet
Validated: 5
EndChar

StartChar: Ccedilla
Encoding: 199 199 125
Width: 700
GlyphClass: 1
Flags: W
LayerCount: 2
Fore
SplineSet
400 -100 m 1,0,-1
 500 -100 l 1,1,-1
 500 -200 l 1,2,-1
 400 -200 l 1,3,-1
 400 -100 l 1,0,-1
200 -200 m 1,4,-1
 400 -200 l 1,5,-1
 400 -300 l 1,6,-1
 200 -300 l 1,7,-1
 200 -200 l 1,4,-1
200 100 m 1,8,-1
 500 100 l 1,9,-1
 500 0 l 1,10,-1
 400 0 l 1,11,-1
 400 -100 l 1,12,-1
 300 -100 l 1,13,-1
 300 0 l 1,14,-1
 200 0 l 1,15,-1
 200 100 l 1,8,-1
500 200 m 1,16,-1
 600 200 l 1,17,-1
 600 100 l 1,18,-1
 500 100 l 1,19,-1
 500 200 l 1,16,-1
100 800 m 1,20,-1
 200 800 l 1,21,-1
 200 100 l 1,22,-1
 100 100 l 1,23,-1
 100 800 l 1,20,-1
200 900 m 1,24,-1
 500 900 l 1,25,-1
 500 800 l 1,26,-1
 200 800 l 1,27,-1
 200 900 l 1,24,-1
500 800 m 1,28,-1
 600 800 l 1,29,-1
 600 700 l 1,30,-1
 500 700 l 1,31,-1
 500 800 l 1,28,-1
EndSplineSet
Validated: 5
EndChar

StartChar: Eth
Encoding: 208 208 134
Width: 700
GlyphClass: 1
Flags: W
LayerCount: 2
Fore
SplineSet
100 900 m 1,0,-1
 500 900 l 1,1,-1
 500 800 l 1,2,-1
 200 800 l 1,3,-1
 200 500 l 1,4,-1
 400 500 l 1,5,-1
 400 400 l 1,6,-1
 200 400 l 1,7,-1
 200 100 l 1,8,-1
 500 100 l 1,9,-1
 500 0 l 1,10,-1
 100 0 l 1,11,-1
 100 400 l 1,12,-1
 0 400 l 1,13,-1
 0 500 l 1,14,-1
 100 500 l 1,15,-1
 100 900 l 1,0,-1
500 800 m 1,16,-1
 600 800 l 1,17,-1
 600 100 l 1,18,-1
 500 100 l 1,19,-1
 500 800 l 1,16,-1
EndSplineSet
Validated: 5
EndChar

StartChar: multiply
Encoding: 215 215 141
Width: 700
GlyphClass: 1
Flags: W
LayerCount: 2
Fore
SplineSet
100 300 m 1,0,-1
 200 300 l 1,1,-1
 200 200 l 1,2,-1
 100 200 l 1,3,-1
 100 300 l 1,0,-1
200 400 m 1,4,-1
 300 400 l 1,5,-1
 300 300 l 1,6,-1
 200 300 l 1,7,-1
 200 400 l 1,4,-1
300 500 m 1,8,-1
 400 500 l 1,9,-1
 400 400 l 1,10,-1
 300 400 l 1,11,-1
 300 500 l 1,8,-1
400 600 m 1,12,-1
 500 600 l 1,13,-1
 500 500 l 1,14,-1
 400 500 l 1,15,-1
 400 600 l 1,12,-1
500 700 m 1,16,-1
 600 700 l 1,17,-1
 600 600 l 1,18,-1
 500 600 l 1,19,-1
 500 700 l 1,16,-1
500 300 m 1,20,-1
 600 300 l 1,21,-1
 600 200 l 1,22,-1
 500 200 l 1,23,-1
 500 300 l 1,20,-1
400 400 m 1,24,-1
 500 400 l 1,25,-1
 500 300 l 1,26,-1
 400 300 l 1,27,-1
 400 400 l 1,24,-1
200 600 m 1,28,-1
 300 600 l 1,29,-1
 300 500 l 1,30,-1
 200 500 l 1,31,-1
 200 600 l 1,28,-1
100 700 m 1,32,-1
 200 700 l 1,33,-1
 200 600 l 1,34,-1
 100 600 l 1,35,-1
 100 700 l 1,32,-1
EndSplineSet
Validated: 5
EndChar

StartChar: Oslash
Encoding: 216 216 142
Width: 700
GlyphClass: 1
Flags: W
LayerCount: 2
Fore
SplineSet
600 900 m 1,0,-1
 700 900 l 1,1,-1
 700 800 l 1,2,-1
 600 800 l 1,3,-1
 600 900 l 1,0,-1
0 100 m 1,4,-1
 100 100 l 1,5,-1
 100 0 l 1,6,-1
 0 0 l 1,7,-1
 0 100 l 1,4,-1
200 100 m 1,8,-1
 500 100 l 1,9,-1
 500 0 l 1,10,-1
 200 0 l 1,11,-1
 200 100 l 1,8,-1
500 800 m 1,12,-1
 600 800 l 1,13,-1
 600 100 l 1,14,-1
 500 100 l 1,15,-1
 500 500 l 1,16,-1
 400 500 l 1,17,-1
 400 600 l 1,18,-1
 500 600 l 1,19,-1
 500 800 l 1,12,-1
300 500 m 1,20,-1
 400 500 l 1,21,-1
 400 400 l 1,22,-1
 300 400 l 1,23,-1
 300 500 l 1,20,-1
100 800 m 1,24,-1
 200 800 l 1,25,-1
 200 400 l 1,26,-1
 300 400 l 1,27,-1
 300 300 l 1,28,-1
 200 300 l 1,29,-1
 200 100 l 1,30,-1
 100 100 l 1,31,-1
 100 800 l 1,24,-1
200 900 m 1,32,-1
 500 900 l 1,33,-1
 500 800 l 1,34,-1
 200 800 l 1,35,-1
 200 900 l 1,32,-1
EndSplineSet
Validated: 5
EndChar

StartChar: Thorn
Encoding: 222 222 148
Width: 700
GlyphClass: 1
Flags: W
LayerCount: 2
Fore
SplineSet
500 600 m 1,0,-1
 600 600 l 1,1,-1
 600 300 l 1,2,-1
 500 300 l 1,3,-1
 500 600 l 1,0,-1
100 900 m 1,4,-1
 200 900 l 1,5,-1
 200 700 l 1,6,-1
 500 700 l 1,7,-1
 500 600 l 1,8,-1
 200 600 l 1,9,-1
 200 300 l 1,10,-1
 500 300 l 1,11,-1
 500 200 l 1,12,-1
 200 200 l 1,13,-1
 200 0 l 1,14,-1
 100 0 l 1,15,-1
 100 900 l 1,4,-1
EndSplineSet
Validated: 5
EndChar

StartChar: germandbls
Encoding: 223 223 149
Width: 700
GlyphClass: 1
Flags: W
LayerCount: 2
Fore
SplineSet
300 500 m 1,0,-1
 400 500 l 1,1,-1
 400 400 l 1,2,-1
 300 400 l 1,3,-1
 300 500 l 1,0,-1
400 600 m 1,4,-1
 500 600 l 1,5,-1
 500 500 l 1,6,-1
 400 500 l 1,7,-1
 400 600 l 1,4,-1
400 400 m 1,8,-1
 500 400 l 1,9,-1
 500 300 l 1,10,-1
 400 300 l 1,11,-1
 400 400 l 1,8,-1
100 800 m 1,12,-1
 200 800 l 1,13,-1
 200 0 l 1,14,-1
 100 0 l 1,15,-1
 100 800 l 1,12,-1
500 300 m 1,16,-1
 600 300 l 1,17,-1
 600 100 l 1,18,-1
 500 100 l 1,19,-1
 500 300 l 1,16,-1
300 100 m 1,20,-1
 500 100 l 1,21,-1
 500 0 l 1,22,-1
 300 0 l 1,23,-1
 300 100 l 1,20,-1
500 800 m 1,24,-1
 600 800 l 1,25,-1
 600 600 l 1,26,-1
 500 600 l 1,27,-1
 500 800 l 1,24,-1
200 900 m 1,28,-1
 500 900 l 1,29,-1
 500 800 l 1,30,-1
 200 800 l 1,31,-1
 200 900 l 1,28,-1
EndSplineSet
Validated: 5
EndChar

StartChar: ae
Encoding: 230 230 156
Width: 1100
GlyphClass: 1
Flags: W
LayerCount: 2
Fore
SplineSet
900 200 m 1,0,-1
 1000 200 l 1,1,-1
 1000 100 l 1,2,-1
 900 100 l 1,3,-1
 900 200 l 1,0,-1
100 600 m 1,4,-1
 200 600 l 1,5,-1
 200 500 l 1,6,-1
 100 500 l 1,7,-1
 100 600 l 1,4,-1
600 100 m 1,8,-1
 900 100 l 1,9,-1
 900 0 l 1,10,-1
 600 0 l 1,11,-1
 600 100 l 1,8,-1
200 100 m 1,12,-1
 500 100 l 1,13,-1
 500 0 l 1,14,-1
 200 0 l 1,15,-1
 200 100 l 1,12,-1
100 300 m 1,16,-1
 200 300 l 1,17,-1
 200 100 l 1,18,-1
 100 100 l 1,19,-1
 100 300 l 1,16,-1
500 600 m 1,20,-1
 600 600 l 1,21,-1
 600 400 l 1,22,-1
 900 400 l 1,23,-1
 900 600 l 1,24,-1
 1000 600 l 1,25,-1
 1000 300 l 1,26,-1
 600 300 l 1,27,-1
 600 100 l 1,28,-1
 500 100 l 1,29,-1
 500 300 l 1,30,-1
 200 300 l 1,31,-1
 200 400 l 1,32,-1
 500 400 l 1,33,-1
 500 600 l 1,20,-1
600 700 m 1,34,-1
 900 700 l 1,35,-1
 900 600 l 1,36,-1
 600 600 l 1,37,-1
 600 700 l 1,34,-1
200 700 m 1,38,-1
 500 700 l 1,39,-1
 500 600 l 1,40,-1
 200 600 l 1,41,-1
 200 700 l 1,38,-1
EndSplineSet
Validated: 5
EndChar

StartChar: ccedilla
Encoding: 231 231 157
Width: 700
GlyphClass: 1
Flags: W
LayerCount: 2
Fore
SplineSet
400 -100 m 1,0,-1
 500 -100 l 1,1,-1
 500 -200 l 1,2,-1
 400 -200 l 1,3,-1
 400 -100 l 1,0,-1
200 -200 m 1,4,-1
 400 -200 l 1,5,-1
 400 -300 l 1,6,-1
 200 -300 l 1,7,-1
 200 -200 l 1,4,-1
200 100 m 1,8,-1
 500 100 l 1,9,-1
 500 0 l 1,10,-1
 400 0 l 1,11,-1
 400 -100 l 1,12,-1
 300 -100 l 1,13,-1
 300 0 l 1,14,-1
 200 0 l 1,15,-1
 200 100 l 1,8,-1
500 200 m 1,16,-1
 600 200 l 1,17,-1
 600 100 l 1,18,-1
 500 100 l 1,19,-1
 500 200 l 1,16,-1
100 600 m 1,20,-1
 200 600 l 1,21,-1
 200 100 l 1,22,-1
 100 100 l 1,23,-1
 100 600 l 1,20,-1
200 700 m 1,24,-1
 500 700 l 1,25,-1
 500 600 l 1,26,-1
 200 600 l 1,27,-1
 200 700 l 1,24,-1
500 600 m 1,28,-1
 600 600 l 1,29,-1
 600 500 l 1,30,-1
 500 500 l 1,31,-1
 500 600 l 1,28,-1
EndSplineSet
Validated: 5
EndChar

StartChar: eth
Encoding: 240 240 166
Width: 700
GlyphClass: 1
Flags: W
LayerCount: 2
Fore
SplineSet
100 500 m 1,0,-1
 200 500 l 1,1,-1
 200 100 l 1,2,-1
 100 100 l 1,3,-1
 100 500 l 1,0,-1
500 900 m 1,4,-1
 600 900 l 1,5,-1
 600 800 l 1,6,-1
 700 800 l 1,7,-1
 700 700 l 1,8,-1
 600 700 l 1,9,-1
 600 0 l 1,10,-1
 200 0 l 1,11,-1
 200 100 l 1,12,-1
 500 100 l 1,13,-1
 500 500 l 1,14,-1
 200 500 l 1,15,-1
 200 600 l 1,16,-1
 500 600 l 1,17,-1
 500 700 l 1,18,-1
 300 700 l 1,19,-1
 300 800 l 1,20,-1
 500 800 l 1,21,-1
 500 900 l 1,4,-1
EndSplineSet
Validated: 5
EndChar

StartChar: divide
Encoding: 247 247 173
Width: 700
GlyphClass: 1
Flags: W
LayerCount: 2
Fore
SplineSet
300 700 m 1,0,-1
 400 700 l 1,1,-1
 400 600 l 1,2,-1
 300 600 l 1,3,-1
 300 700 l 1,0,-1
300 300 m 1,4,-1
 400 300 l 1,5,-1
 400 200 l 1,6,-1
 300 200 l 1,7,-1
 300 300 l 1,4,-1
100 500 m 1,8,-1
 600 500 l 1,9,-1
 600 400 l 1,10,-1
 100 400 l 1,11,-1
 100 500 l 1,8,-1
EndSplineSet
Validated: 1
EndChar

StartChar: oslash
Encoding: 248 248 174
Width: 700
GlyphClass: 1
Flags: W
LayerCount: 2
Fore
SplineSet
600 700 m 1,0,-1
 700 700 l 1,1,-1
 700 600 l 1,2,-1
 600 600 l 1,3,-1
 600 700 l 1,0,-1
0 100 m 1,4,-1
 100 100 l 1,5,-1
 100 0 l 1,6,-1
 0 0 l 1,7,-1
 0 100 l 1,4,-1
200 100 m 1,8,-1
 500 100 l 1,9,-1
 500 0 l 1,10,-1
 200 0 l 1,11,-1
 200 100 l 1,8,-1
500 600 m 1,12,-1
 600 600 l 1,13,-1
 600 100 l 1,14,-1
 500 100 l 1,15,-1
 500 400 l 1,16,-1
 400 400 l 1,17,-1
 400 500 l 1,18,-1
 500 500 l 1,19,-1
 500 600 l 1,12,-1
300 400 m 1,20,-1
 400 400 l 1,21,-1
 400 300 l 1,22,-1
 300 300 l 1,23,-1
 300 400 l 1,20,-1
100 600 m 1,24,-1
 200 600 l 1,25,-1
 200 300 l 1,26,-1
 300 300 l 1,27,-1
 300 200 l 1,28,-1
 200 200 l 1,29,-1
 200 100 l 1,30,-1
 100 100 l 1,31,-1
 100 600 l 1,24,-1
200 700 m 1,32,-1
 500 700 l 1,33,-1
 500 600 l 1,34,-1
 200 600 l 1,35,-1
 200 700 l 1,32,-1
EndSplineSet
Validated: 5
EndChar

StartChar: thorn
Encoding: 254 254 180
Width: 700
GlyphClass: 1
Flags: W
LayerCount: 2
Fore
SplineSet
500 600 m 1,0,-1
 600 600 l 1,1,-1
 600 100 l 1,2,-1
 500 100 l 1,3,-1
 500 600 l 1,0,-1
100 900 m 1,4,-1
 200 900 l 1,5,-1
 200 700 l 1,6,-1
 500 700 l 1,7,-1
 500 600 l 1,8,-1
 200 600 l 1,9,-1
 200 100 l 1,10,-1
 500 100 l 1,11,-1
 500 0 l 1,12,-1
 200 0 l 1,13,-1
 200 -200 l 1,14,-1
 100 -200 l 1,15,-1
 100 900 l 1,4,-1
EndSplineSet
Validated: 5
EndChar

StartChar: dotlessi
Encoding: 305 305 194
Width: 500
GlyphClass: 1
Flags: W
LayerCount: 2
Fore
SplineSet
200 700 m 1,0,-1
 300 700 l 1,1,-1
 300 0 l 1,2,-1
 200 0 l 1,3,-1
 200 700 l 1,0,-1
EndSplineSet
Validated: 1
EndChar

StartChar: OE
Encoding: 338 338 197
Width: 1100
GlyphClass: 1
Flags: W
LayerCount: 2
Fore
SplineSet
100 800 m 1,0,-1
 200 800 l 1,1,-1
 200 100 l 1,2,-1
 100 100 l 1,3,-1
 100 800 l 1,0,-1
200 900 m 1,4,-1
 1000 900 l 1,5,-1
 1000 800 l 1,6,-1
 600 800 l 1,7,-1
 600 500 l 1,8,-1
 800 500 l 1,9,-1
 800 400 l 1,10,-1
 600 400 l 1,11,-1
 600 100 l 1,12,-1
 1000 100 l 1,13,-1
 1000 0 l 1,14,-1
 200 0 l 1,15,-1
 200 100 l 1,16,-1
 500 100 l 1,17,-1
 500 800 l 1,18,-1
 200 800 l 1,19,-1
 200 900 l 1,4,-1
EndSplineSet
Validated: 5
EndChar

StartChar: oe
Encoding: 339 339 198
Width: 1100
GlyphClass: 1
Flags: W
LayerCount: 2
Fore
SplineSet
900 200 m 1,0,-1
 1000 200 l 1,1,-1
 1000 100 l 1,2,-1
 900 100 l 1,3,-1
 900 200 l 1,0,-1
600 100 m 1,4,-1
 900 100 l 1,5,-1
 900 0 l 1,6,-1
 600 0 l 1,7,-1
 600 100 l 1,4,-1
200 100 m 1,8,-1
 500 100 l 1,9,-1
 500 0 l 1,10,-1
 200 0 l 1,11,-1
 200 100 l 1,8,-1
100 600 m 1,12,-1
 200 600 l 1,13,-1
 200 100 l 1,14,-1
 100 100 l 1,15,-1
 100 600 l 1,12,-1
500 600 m 1,16,-1
 600 600 l 1,17,-1
 600 400 l 1,18,-1
 900 400 l 1,19,-1
 900 600 l 1,20,-1
 1000 600 l 1,21,-1
 1000 300 l 1,22,-1
 600 300 l 1,23,-1
 600 100 l 1,24,-1
 500 100 l 1,25,-1
 500 600 l 1,16,-1
600 700 m 1,26,-1
 900 700 l 1,27,-1
 900 600 l 1,28,-1
 600 600 l 1,29,-1
 600 700 l 1,26,-1
200 700 m 1,30,-1
 500 700 l 1,31,-1
 500 600 l 1,32,-1
 200 600 l 1,33,-1
 200 700 l 1,30,-1
EndSplineSet
Validated: 5
EndChar

StartChar: circumflex
Encoding: 710 710 214
Width: 700
GlyphClass: 1
Flags: W
LayerCount: 2
Fore
SplineSet
200 800 m 1,0,-1
 300 800 l 1,1,-1
 300 700 l 1,2,-1
 200 700 l 1,3,-1
 200 800 l 1,0,-1
300 900 m 1,4,-1
 400 900 l 1,5,-1
 400 800 l 1,6,-1
 300 800 l 1,7,-1
 300 900 l 1,4,-1
400 800 m 1,8,-1
 500 800 l 1,9,-1
 500 700 l 1,10,-1
 400 700 l 1,11,-1
 400 800 l 1,8,-1
EndSplineSet
Validated: 5
EndChar

StartChar: caron
Encoding: 711 711 215
Width: 700
GlyphClass: 1
Flags: W
LayerCount: 2
Fore
SplineSet
400 900 m 1,0,-1
 500 900 l 1,1,-1
 500 800 l 1,2,-1
 400 800 l 1,3,-1
 400 900 l 1,0,-1
300 800 m 1,4,-1
 400 800 l 1,5,-1
 400 700 l 1,6,-1
 300 700 l 1,7,-1
 300 800 l 1,4,-1
200 900 m 1,8,-1
 300 900 l 1,9,-1
 300 800 l 1,10,-1
 200 800 l 1,11,-1
 200 900 l 1,8,-1
EndSplineSet
Validated: 5
EndChar

StartChar: breve
Encoding: 728 728 216
Width: 700
GlyphClass: 1
Flags: W
LayerCount: 2
Fore
SplineSet
500 900 m 1,0,-1
 600 900 l 1,1,-1
 600 800 l 1,2,-1
 500 800 l 1,3,-1
 500 900 l 1,0,-1
200 800 m 1,4,-1
 500 800 l 1,5,-1
 500 700 l 1,6,-1
 200 700 l 1,7,-1
 200 800 l 1,4,-1
100 900 m 1,8,-1
 200 900 l 1,9,-1
 200 800 l 1,10,-1
 100 800 l 1,11,-1
 100 900 l 1,8,-1
EndSplineSet
Validated: 5
EndChar

StartChar: ring
Encoding: 730 730 217
Width: 500
GlyphClass: 1
Flags: W
LayerCount: 2
Fore
SplineSet
300 900 m 1,0,-1
 400 900 l 1,1,-1
 400 800 l 1,2,-1
 300 800 l 1,3,-1
 300 900 l 1,0,-1
200 800 m 1,4,-1
 300 800 l 1,5,-1
 300 700 l 1,6,-1
 200 700 l 1,7,-1
 200 800 l 1,4,-1
100 900 m 1,8,-1
 200 900 l 1,9,-1
 200 800 l 1,10,-1
 100 800 l 1,11,-1
 100 900 l 1,8,-1
200 1000 m 1,12,-1
 300 1000 l 1,13,-1
 300 900 l 1,14,-1
 200 900 l 1,15,-1
 200 1000 l 1,12,-1
EndSplineSet
Validated: 5
EndChar

StartChar: emdash
Encoding: 8212 8212 220
Width: 800
GlyphClass: 1
Flags: W
LayerCount: 2
Fore
SplineSet
100 500 m 1,0,-1
 700 500 l 1,1,-1
 700 400 l 1,2,-1
 100 400 l 1,3,-1
 100 500 l 1,0,-1
EndSplineSet
Validated: 1
EndChar

StartChar: quoteleft
Encoding: 8216 8216 221
Width: 500
GlyphClass: 1
Flags: W
LayerCount: 2
Fore
SplineSet
200 800 m 1,0,-1
 300 800 l 1,1,-1
 300 600 l 1,2,-1
 200 600 l 1,3,-1
 200 800 l 1,0,-1
300 900 m 1,4,-1
 400 900 l 1,5,-1
 400 800 l 1,6,-1
 300 800 l 1,7,-1
 300 900 l 1,4,-1
EndSplineSet
Validated: 5
EndChar

StartChar: quoteright
Encoding: 8217 8217 222
Width: 500
GlyphClass: 1
Flags: W
LayerCount: 2
Fore
SplineSet
100 700 m 1,0,-1
 200 700 l 1,1,-1
 200 600 l 1,2,-1
 100 600 l 1,3,-1
 100 700 l 1,0,-1
200 900 m 1,4,-1
 300 900 l 1,5,-1
 300 700 l 1,6,-1
 200 700 l 1,7,-1
 200 900 l 1,4,-1
EndSplineSet
Validated: 5
EndChar

StartChar: dagger
Encoding: 8224 8224 227
Width: 700
GlyphClass: 1
Flags: W
LayerCount: 2
Fore
SplineSet
300 900 m 1,0,-1
 400 900 l 1,1,-1
 400 700 l 1,2,-1
 600 700 l 1,3,-1
 600 600 l 1,4,-1
 400 600 l 1,5,-1
 400 0 l 1,6,-1
 300 0 l 1,7,-1
 300 600 l 1,8,-1
 100 600 l 1,9,-1
 100 700 l 1,10,-1
 300 700 l 1,11,-1
 300 900 l 1,0,-1
EndSplineSet
Validated: 1
EndChar

StartChar: daggerdbl
Encoding: 8225 8225 228
Width: 700
GlyphClass: 1
Flags: W
LayerCount: 2
Fore
SplineSet
300 900 m 1,0,-1
 400 900 l 1,1,-1
 400 700 l 1,2,-1
 600 700 l 1,3,-1
 600 600 l 1,4,-1
 400 600 l 1,5,-1
 400 300 l 1,6,-1
 600 300 l 1,7,-1
 600 200 l 1,8,-1
 400 200 l 1,9,-1
 400 0 l 1,10,-1
 300 0 l 1,11,-1
 300 200 l 1,12,-1
 100 200 l 1,13,-1
 100 300 l 1,14,-1
 300 300 l 1,15,-1
 300 600 l 1,16,-1
 100 600 l 1,17,-1
 100 700 l 1,18,-1
 300 700 l 1,19,-1
 300 900 l 1,0,-1
EndSplineSet
Validated: 1
EndChar

StartChar: bullet
Encoding: 8226 8226 229
Width: 600
GlyphClass: 1
Flags: W
LayerCount: 2
Fore
SplineSet
200 500 m 1,0,-1
 400 500 l 1,1,-1
 400 300 l 1,2,-1
 200 300 l 1,3,-1
 200 500 l 1,0,-1
EndSplineSet
Validated: 1
EndChar

StartChar: perthousand
Encoding: 8240 8240 231
Width: 1300
GlyphClass: 1
Flags: W
LayerCount: 2
Fore
SplineSet
1100 300 m 1,0,-1
 1200 300 l 1,1,-1
 1200 100 l 1,2,-1
 1100 100 l 1,3,-1
 1100 300 l 1,0,-1
1000 100 m 1,4,-1
 1100 100 l 1,5,-1
 1100 0 l 1,6,-1
 1000 0 l 1,7,-1
 1000 100 l 1,4,-1
900 300 m 1,8,-1
 1000 300 l 1,9,-1
 1000 100 l 1,10,-1
 900 100 l 1,11,-1
 900 300 l 1,8,-1
1000 400 m 1,12,-1
 1100 400 l 1,13,-1
 1100 300 l 1,14,-1
 1000 300 l 1,15,-1
 1000 400 l 1,12,-1
700 300 m 1,16,-1
 800 300 l 1,17,-1
 800 100 l 1,18,-1
 700 100 l 1,19,-1
 700 300 l 1,16,-1
600 100 m 1,20,-1
 700 100 l 1,21,-1
 700 0 l 1,22,-1
 600 0 l 1,23,-1
 600 100 l 1,20,-1
500 300 m 1,24,-1
 600 300 l 1,25,-1
 600 100 l 1,26,-1
 500 100 l 1,27,-1
 500 300 l 1,24,-1
600 400 m 1,28,-1
 700 400 l 1,29,-1
 700 300 l 1,30,-1
 600 300 l 1,31,-1
 600 400 l 1,28,-1
200 300 m 1,32,-1
 300 300 l 1,33,-1
 300 200 l 1,34,-1
 200 200 l 1,35,-1
 200 300 l 1,32,-1
300 400 m 1,36,-1
 400 400 l 1,37,-1
 400 300 l 1,38,-1
 300 300 l 1,39,-1
 300 400 l 1,36,-1
400 500 m 1,40,-1
 500 500 l 1,41,-1
 500 400 l 1,42,-1
 400 400 l 1,43,-1
 400 500 l 1,40,-1
500 600 m 1,44,-1
 600 600 l 1,45,-1
 600 500 l 1,46,-1
 500 500 l 1,47,-1
 500 600 l 1,44,-1
600 700 m 1,48,-1
 700 700 l 1,49,-1
 700 600 l 1,50,-1
 600 600 l 1,51,-1
 600 700 l 1,48,-1
300 800 m 1,52,-1
 400 800 l 1,53,-1
 400 600 l 1,54,-1
 300 600 l 1,55,-1
 300 800 l 1,52,-1
200 600 m 1,56,-1
 300 600 l 1,57,-1
 300 500 l 1,58,-1
 200 500 l 1,59,-1
 200 600 l 1,56,-1
100 800 m 1,60,-1
 200 800 l 1,61,-1
 200 600 l 1,62,-1
 100 600 l 1,63,-1
 100 800 l 1,60,-1
200 900 m 1,64,-1
 300 900 l 1,65,-1
 300 800 l 1,66,-1
 200 800 l 1,67,-1
 200 900 l 1,64,-1
EndSplineSet
Validated: 5
EndChar

StartChar: guilsinglleft
Encoding: 8249 8249 232
Width: 700
GlyphClass: 1
Flags: W
LayerCount: 2
Fore
SplineSet
300 500 m 1,0,-1
 400 500 l 1,1,-1
 400 400 l 1,2,-1
 300 400 l 1,3,-1
 300 500 l 1,0,-1
400 600 m 1,4,-1
 500 600 l 1,5,-1
 500 500 l 1,6,-1
 400 500 l 1,7,-1
 400 600 l 1,4,-1
500 700 m 1,8,-1
 600 700 l 1,9,-1
 600 600 l 1,10,-1
 500 600 l 1,11,-1
 500 700 l 1,8,-1
500 300 m 1,12,-1
 600 300 l 1,13,-1
 600 200 l 1,14,-1
 500 200 l 1,15,-1
 500 300 l 1,12,-1
400 400 m 1,16,-1
 500 400 l 1,17,-1
 500 300 l 1,18,-1
 400 300 l 1,19,-1
 400 400 l 1,16,-1
EndSplineSet
Validated: 5
EndChar

StartChar: guilsinglright
Encoding: 8250 8250 233
Width: 700
GlyphClass: 1
Flags: W
LayerCount: 2
Fore
SplineSet
100 300 m 1,0,-1
 200 300 l 1,1,-1
 200 200 l 1,2,-1
 100 200 l 1,3,-1
 100 300 l 1,0,-1
200 400 m 1,4,-1
 300 400 l 1,5,-1
 300 300 l 1,6,-1
 200 300 l 1,7,-1
 200 400 l 1,4,-1
300 500 m 1,8,-1
 400 500 l 1,9,-1
 400 400 l 1,10,-1
 300 400 l 1,11,-1
 300 500 l 1,8,-1
200 600 m 1,12,-1
 300 600 l 1,13,-1
 300 500 l 1,14,-1
 200 500 l 1,15,-1
 200 600 l 1,12,-1
100 700 m 1,16,-1
 200 700 l 1,17,-1
 200 600 l 1,18,-1
 100 600 l 1,19,-1
 100 700 l 1,16,-1
EndSplineSet
Validated: 5
EndChar

StartChar: Euro
Encoding: 8364 8364 234
Width: 800
GlyphClass: 1
Flags: W
LayerCount: 2
Fore
SplineSet
200 800 m 1,0,-1
 300 800 l 1,1,-1
 300 600 l 1,2,-1
 600 600 l 1,3,-1
 600 500 l 1,4,-1
 300 500 l 1,5,-1
 300 400 l 1,6,-1
 500 400 l 1,7,-1
 500 300 l 1,8,-1
 300 300 l 1,9,-1
 300 100 l 1,10,-1
 200 100 l 1,11,-1
 200 300 l 1,12,-1
 100 300 l 1,13,-1
 100 400 l 1,14,-1
 200 400 l 1,15,-1
 200 500 l 1,16,-1
 100 500 l 1,17,-1
 100 600 l 1,18,-1
 200 600 l 1,19,-1
 200 800 l 1,0,-1
600 200 m 1,20,-1
 700 200 l 1,21,-1
 700 100 l 1,22,-1
 600 100 l 1,23,-1
 600 200 l 1,20,-1
300 100 m 1,24,-1
 600 100 l 1,25,-1
 600 0 l 1,26,-1
 300 0 l 1,27,-1
 300 100 l 1,24,-1
300 900 m 1,28,-1
 600 900 l 1,29,-1
 600 800 l 1,30,-1
 300 800 l 1,31,-1
 300 900 l 1,28,-1
600 800 m 1,32,-1
 700 800 l 1,33,-1
 700 700 l 1,34,-1
 600 700 l 1,35,-1
 600 800 l 1,32,-1
EndSplineSet
Validated: 5
EndChar

StartChar: uni20B1
Encoding: 8369 8369 235
Width: 900
GlyphClass: 1
Flags: W
LayerCount: 2
Fore
SplineSet
200 900 m 1,0,-1
 600 900 l 1,1,-1
 600 800 l 1,2,-1
 300 800 l 1,3,-1
 300 700 l 1,4,-1
 600 700 l 1,5,-1
 600 800 l 1,6,-1
 700 800 l 1,7,-1
 700 700 l 1,8,-1
 800 700 l 1,9,-1
 800 600 l 1,10,-1
 700 600 l 1,11,-1
 700 500 l 1,12,-1
 600 500 l 1,13,-1
 600 600 l 1,14,-1
 300 600 l 1,15,-1
 300 500 l 1,16,-1
 600 500 l 1,17,-1
 600 400 l 1,18,-1
 300 400 l 1,19,-1
 300 0 l 1,20,-1
 200 0 l 1,21,-1
 200 600 l 1,22,-1
 100 600 l 1,23,-1
 100 700 l 1,24,-1
 200 700 l 1,25,-1
 200 900 l 1,0,-1
EndSplineSet
Validated: 5
EndChar

StartChar: uni20B7
Encoding: 8375 8375 236
Width: 900
GlyphClass: 1
Flags: W
LayerCount: 2
Fore
SplineSet
400 900 m 1,0,-1
 700 900 l 1,1,-1
 700 800 l 1,2,-1
 400 800 l 1,3,-1
 400 900 l 1,0,-1
700 800 m 1,4,-1
 800 800 l 1,5,-1
 800 700 l 1,6,-1
 700 700 l 1,7,-1
 700 800 l 1,4,-1
400 500 m 1,8,-1
 700 500 l 1,9,-1
 700 400 l 1,10,-1
 400 400 l 1,11,-1
 400 500 l 1,8,-1
700 400 m 1,12,-1
 800 400 l 1,13,-1
 800 100 l 1,14,-1
 700 100 l 1,15,-1
 700 400 l 1,12,-1
300 800 m 1,16,-1
 400 800 l 1,17,-1
 400 500 l 1,18,-1
 300 500 l 1,19,-1
 300 800 l 1,16,-1
0 300 m 1,20,-1
 100 300 l 1,21,-1
 100 200 l 1,22,-1
 0 200 l 1,23,-1
 0 300 l 1,20,-1
200 300 m 1,24,-1
 300 300 l 1,25,-1
 300 200 l 1,26,-1
 200 200 l 1,27,-1
 200 300 l 1,24,-1
400 300 m 1,28,-1
 500 300 l 1,29,-1
 500 200 l 1,30,-1
 400 200 l 1,31,-1
 400 300 l 1,28,-1
100 200 m 1,32,-1
 200 200 l 1,33,-1
 200 100 l 1,34,-1
 300 100 l 1,35,-1
 300 200 l 1,36,-1
 400 200 l 1,37,-1
 400 100 l 1,38,-1
 500 100 l 1,39,-1
 500 200 l 1,40,-1
 600 200 l 1,41,-1
 600 100 l 1,42,-1
 700 100 l 1,43,-1
 700 0 l 1,44,-1
 600 0 l 1,45,-1
 600 -100 l 1,46,-1
 500 -100 l 1,47,-1
 500 0 l 1,48,-1
 400 0 l 1,49,-1
 400 -100 l 1,50,-1
 300 -100 l 1,51,-1
 300 0 l 1,52,-1
 200 0 l 1,53,-1
 200 -100 l 1,54,-1
 100 -100 l 1,55,-1
 100 200 l 1,32,-1
EndSplineSet
Validated: 5
EndChar

StartChar: uni2117
Encoding: 8471 8471 237
Width: 900
GlyphClass: 1
Flags: W
LayerCount: 2
Fore
SplineSet
500 600 m 1,0,-1
 600 600 l 1,1,-1
 600 400 l 1,2,-1
 500 400 l 1,3,-1
 500 600 l 1,0,-1
700 800 m 1,4,-1
 800 800 l 1,5,-1
 800 100 l 1,6,-1
 700 100 l 1,7,-1
 700 800 l 1,4,-1
200 100 m 1,8,-1
 700 100 l 1,9,-1
 700 0 l 1,10,-1
 200 0 l 1,11,-1
 200 100 l 1,8,-1
100 800 m 1,12,-1
 200 800 l 1,13,-1
 200 100 l 1,14,-1
 100 100 l 1,15,-1
 100 800 l 1,12,-1
200 900 m 1,16,-1
 700 900 l 1,17,-1
 700 800 l 1,18,-1
 200 800 l 1,19,-1
 200 900 l 1,16,-1
300 700 m 1,20,-1
 500 700 l 1,21,-1
 500 600 l 1,22,-1
 400 600 l 1,23,-1
 400 400 l 1,24,-1
 500 400 l 1,25,-1
 500 300 l 1,26,-1
 400 300 l 1,27,-1
 400 200 l 1,28,-1
 300 200 l 1,29,-1
 300 700 l 1,20,-1
EndSplineSet
Validated: 5
EndChar

StartChar: trademark
Encoding: 8482 8482 238
Width: 1100
GlyphClass: 1
Flags: W
LayerCount: 2
Fore
SplineSet
900 1100 m 1,0,-1
 1000 1100 l 1,1,-1
 1000 500 l 1,2,-1
 900 500 l 1,3,-1
 900 900 l 1,4,-1
 800 900 l 1,5,-1
 800 1000 l 1,6,-1
 900 1000 l 1,7,-1
 900 1100 l 1,0,-1
700 900 m 1,8,-1
 800 900 l 1,9,-1
 800 700 l 1,10,-1
 700 700 l 1,11,-1
 700 900 l 1,8,-1
500 1100 m 1,12,-1
 600 1100 l 1,13,-1
 600 1000 l 1,14,-1
 700 1000 l 1,15,-1
 700 900 l 1,16,-1
 600 900 l 1,17,-1
 600 500 l 1,18,-1
 500 500 l 1,19,-1
 500 1100 l 1,12,-1
100 1100 m 1,20,-1
 400 1100 l 1,21,-1
 400 1000 l 1,22,-1
 300 1000 l 1,23,-1
 300 500 l 1,24,-1
 200 500 l 1,25,-1
 200 1000 l 1,26,-1
 100 1000 l 1,27,-1
 100 1100 l 1,20,-1
EndSplineSet
Validated: 5
EndChar

